<svg width="512" height="512" viewBox="0 0 512 512" fill="none" xmlns="http://www.w3.org/2000/svg">
<path d="M499.11 12.8918C481.924 -4.29727 454.425 -4.29727 437.239 12.8918L256 194.158L74.7611 12.8918C57.5746 -4.29727 30.0763 -4.29727 12.8898 12.8918C-4.29661 30.0809 -4.29661 57.5834 12.8898 74.7725L194.129 256.039L12.8898 437.306C-4.29661 454.495 -4.29661 481.997 12.8898 499.186C21.3268 507.625 32.5762 512 43.8255 512C55.0748 512 66.3241 507.625 74.7611 499.186L256 317.92L437.239 499.186C445.676 507.625 456.925 512 468.175 512C479.424 512 490.673 507.625 499.11 499.186C516.297 481.997 516.297 454.495 499.11 437.306L317.871 256.039L499.11 74.7725C515.984 57.5834 515.984 30.0809 499.11 12.8918Z" fill="black"/>
</svg>
