<svg width="512" height="512" viewBox="0 0 512 512" fill="none" xmlns="http://www.w3.org/2000/svg">
<path d="M212.5 348.681C209.5 348.347 206.833 347.512 204.5 346.176C202.167 344.84 200 343.17 198 341.166L113 256C112.333 254.664 111.833 253.245 111.5 251.742C111.167 250.239 111 248.652 111 246.982C111 240.971 113.083 235.877 117.25 231.703C121.417 227.528 126.5 225.44 132.5 225.44C134.167 225.44 135.75 225.607 137.25 225.941C138.75 226.275 140.167 226.776 141.5 227.444L211.5 297.581L453.5 57.1115C454.833 56.4436 456.333 55.8591 458 55.3581C459.667 54.8571 461.333 54.6067 463 54.6067C468.667 54.6067 473.583 56.6941 477.75 60.8689C481.917 65.0437 484 70.137 484 76.1487C484 77.8187 483.833 79.4051 483.5 80.908C483.167 82.411 482.667 83.9974 482 85.6673V85.1663L226.5 341.166C224.833 343.17 222.75 344.84 220.25 346.176C217.75 347.512 215.167 348.347 212.5 348.681ZM255 512C231 512 208 508.827 186 502.481C164 496.136 143.417 487.202 124.25 475.679C105.083 464.157 87.6667 450.38 72 434.348C56.3333 418.317 43.1667 400.449 32.5 380.744L31.5 379.241C23.5 365.547 16.9167 350.518 11.75 334.153C6.58333 317.787 3.16667 300.921 1.5 283.554L1 282.552C0.666667 278.544 0.416667 274.286 0.25 269.777C0.0833333 265.268 0 260.676 0 256C0 231.953 3.16667 208.908 9.5 186.865C15.8333 164.488 24.6667 143.697 36 124.493C47.3333 105.289 61 88.0052 77 72.6419C93.3333 56.9446 111.167 43.5851 130.5 32.5636L132 32.0626C145.667 24.047 160.667 17.3673 177 12.0235C193.333 6.67972 210.167 3.17287 227.5 1.50294H228.5C232.5 1.16895 236.833 0.834968 241.5 0.500982C246.167 0.166997 250.833 3.8147e-06 255.5 3.8147e-06C268.833 3.8147e-06 281.75 1.00196 294.25 3.00587C306.75 5.00979 319 7.84867 331 11.5225L329.5 11.0215C334.167 12.0235 338.167 14.5284 341.5 18.5362C344.833 22.544 346.5 27.0528 346.5 32.0626C346.5 38.0744 344.417 43.1676 340.25 47.3425C336.083 51.5173 331 53.6047 325 53.6047C323.667 53.6047 322.333 53.4377 321 53.1037C319.667 52.7697 318.333 52.2688 317 51.6008C307.667 48.9289 297.75 46.758 287.25 45.0881C276.75 43.4181 266 42.5832 255 42.5832C251 42.5832 247 42.6667 243 42.8337C239 43.0007 235 43.4181 231 44.0861L232 43.5851C217 45.2551 202.667 48.3444 189 52.8532C175.333 57.362 162.5 62.9563 150.5 69.636L151.5 69.135C139.167 76.1487 127.833 83.9974 117.5 92.681C107.167 101.365 97.6667 110.883 89 121.237C74 139.606 62.25 160.146 53.75 182.857C45.25 205.568 41 229.782 41 255.499C41 259.507 41.1667 263.431 41.5 267.272C41.8333 271.113 42.1667 275.037 42.5 279.045V278.043C43.8333 293.072 46.75 307.434 51.25 321.127C55.75 334.821 61.3333 347.846 68 360.204L67.5 359.202C74.5 371.225 82.3333 382.414 91 392.767C99.6667 403.121 109.167 412.639 119.5 421.323H120C138 436.352 158.417 448.125 181.25 456.642C204.083 465.159 228.167 469.417 253.5 469.417C257.5 469.417 261.5 469.333 265.5 469.166C269.5 468.999 273.333 468.582 277 467.914L276.5 468.415C291.5 466.745 305.75 463.656 319.25 459.147C332.75 454.638 345.667 449.044 358 442.364L357 442.865C369.333 435.851 380.667 428.003 391 419.319C401.333 410.635 410.667 401.117 419 390.763H419.5C434.167 372.394 445.75 351.854 454.25 329.143C462.75 306.432 467 282.218 467 256.501C467 252.493 466.917 248.569 466.75 244.728C466.583 240.887 466.333 236.963 466 232.955V233.957C466 233.623 466 233.289 466 232.955C466 232.621 466 232.12 466 231.452C466 225.44 468.167 220.264 472.5 215.922C476.833 211.58 482 209.409 488 209.409C494 209.409 499.083 211.329 503.25 215.17C507.417 219.011 509.833 223.77 510.5 229.448C510.833 233.456 511.167 237.714 511.5 242.223C511.833 246.732 512 251.324 512 256C512 280.047 508.833 303.092 502.5 325.135C496.167 347.512 487.25 368.303 475.75 387.507C464.25 406.711 450.5 423.995 434.5 439.358C418.167 455.055 400.333 468.415 381 479.436L379.5 479.937C365.5 488.287 350.25 495.217 333.75 500.728C317.25 506.239 300.167 509.996 282.5 512H281.5C277.167 512 272.75 512 268.25 512C263.75 512 259.333 512 255 512Z" fill="black"/>
</svg>
