<svg version="1.1" xmlns="http://www.w3.org/2000/svg" x="0px" y="0px"
     viewBox="0 0 512 512" style="enable-background:new 0 0 512 512;" xml:space="preserve">
<path d="M402,0H242c-60.7,0-110,49.3-110,110v22h-22C49.3,132,0,181.3,0,242v160c0,60.7,49.3,110,110,110h160
	c60.7,0,110-49.3,110-110v-22h22c60.7,0,110-49.3,110-110V110C512,49.3,462.7,0,402,0z M352,402c0,45.2-36.8,82-82,82H110
	c-45.2,0-82-36.8-82-82V242c0-45.2,36.8-82,82-82h160c45.2,0,82,36.8,82,82V402z M484,270c0,45.2-36.8,82-82,82h-22V242
	c0-60.7-49.3-110-110-110H160v-22c0-45.2,36.8-82,82-82h160c45.2,0,82,36.8,82,82V270z"/>
</svg>
