<svg version="1.1" xmlns="http://www.w3.org/2000/svg" x="0px" y="0px"
     viewBox="0 0 512 512" style="enable-background:new 0 0 512 512;" xml:space="preserve">
<path d="M267.8,266.8c5.5,5.5,5.5,14.3,0,19.8l-90.5,90.5c-2.7,2.7-6.3,4.1-9.9,4.1c-3.6,0-7.2-1.4-9.9-4.1l-45.3-45.3
	c-5.5-5.5-5.5-14.3,0-19.8s14.3-5.5,19.8,0l35.4,35.4l80.6-80.6C253.4,261.4,262.3,261.4,267.8,266.8z M512,110v160
	c0,60.7-49.3,110-110,110h-22v22c0,60.7-49.3,110-110,110H110C49.3,512,0,462.7,0,402V242c0-60.7,49.3-110,110-110h22v-22
	C132,49.3,181.3,0,242,0h160C462.7,0,512,49.3,512,110z M352,242c0-45.2-36.8-82-82-82H110c-45.2,0-82,36.8-82,82v160
	c0,45.2,36.8,82,82,82h160c45.2,0,82-36.8,82-82V242z M484,110c0-45.2-36.8-82-82-82H242c-45.2,0-82,36.8-82,82v22h110
	c60.7,0,110,49.3,110,110v110h22c45.2,0,82-36.8,82-82V110z"/>
</svg>
