<svg version="1.1" xmlns="http://www.w3.org/2000/svg" x="0px" y="0px"
     viewBox="0 0 512 512" style="enable-background:new 0 0 512 512;" xml:space="preserve">
<path d="M362.3,14c0-7.8,6.2-14,14-14h121.6c0.4,0,0.9,0.1,1.3,0.1c0.2,0.1,0.4,0.1,0.6,0.1s0.5,0.1,0.8,0.1
	c0.2,0.1,0.4,0.1,0.7,0.1c0.2,0.1,0.4,0.1,0.6,0.2c0.2,0.1,0.4,0.1,0.6,0.2c0.2,0.1,0.4,0.1,0.6,0.2c0.2,0.1,0.4,0.1,0.6,0.3
	c0.2,0.1,0.4,0.1,0.6,0.4c0.2,0.1,0.4,0.2,0.6,0.4c0.2,0.1,0.4,0.2,0.6,0.4s0.4,0.3,0.6,0.5c0.1,0.1,0.4,0.2,0.5,0.4
	c0.7,0.6,1.3,1.2,2,2c0.1,0.1,0.2,0.4,0.4,0.5c0.2,0.2,0.3,0.4,0.5,0.6c0.1,0.1,0.2,0.4,0.4,0.6c0.1,0.2,0.2,0.4,0.4,0.6
	c0.1,0.2,0.1,0.4,0.4,0.6c0.1,0.2,0.2,0.4,0.3,0.6c0.1,0.2,0.1,0.4,0.2,0.6c0.1,0.2,0.1,0.4,0.2,0.6c0.1,0.2,0.1,0.4,0.2,0.6
	c0.1,0.2,0.1,0.4,0.1,0.7c0.1,0.2,0.1,0.5,0.1,0.8c0.1,0.2,0.1,0.4,0.1,0.6c-0.1,0.3-0.1,0.8-0.1,1.2v121.6c0,3.8-1.6,7.4-4.1,9.9
	s-6.1,4.1-9.9,4.1c-7.8,0-14-6.2-14-14V47.8L301.4,230.3c-5.4,5.4-14.4,5.4-19.8,0c-5.4-5.4-5.4-14.4,0-19.8L464.1,28h-87.8
	C368.5,28,362.3,21.8,362.3,14z M498,216.3c-7.7,0-14,6.3-14,14V402c0,45.2-36.8,82-82,82H110c-45.2,0-82-36.8-82-82V110
	c0-45.2,36.8-82,82-82h171.6c7.7,0,14-6.3,14-14s-6.3-14-14-14H110C49.3,0,0,49.3,0,110v292c0,60.7,49.3,110,110,110h292
	c60.7,0,110-49.3,110-110V230.3C512,222.6,505.7,216.3,498,216.3z"/>
</svg>
