<svg width="171" height="34" viewBox="0 0 171 34" fill="none" xmlns="http://www.w3.org/2000/svg">
<path d="M32.3686 0L20.2084 15.3619H0L12.1603 0H32.3686ZM26.4354 2.93726H13.5995L5.87453 12.6302H18.7104L26.4354 2.93726Z" fill="#5D8AB9"/>
<path d="M20.2084 17.623L32.3686 33.0143H12.1603L0 17.623H20.2084ZM18.7104 20.5603H5.87453L13.5995 30.2533H26.4354L18.7104 20.5603Z" fill="#5D8AB9"/>
<path d="M35.0407 2.34961L46.3198 16.3897L35.0701 30.4886L33.0434 27.9038L41.0621 17.9171H24.9953L23.791 16.3897L24.9953 14.9505H41.3852L32.9553 4.99315L35.0407 2.34961Z" fill="#5D8AB9"/>
<path d="M71.3758 10.8089C71.3905 10.9456 71.3905 11.0835 71.3758 11.2201C71.3807 11.3579 71.3708 11.4957 71.3464 11.6314L70.2303 25.5834H66.2356L65.7656 23.9972C65.0476 24.5367 64.2688 24.9902 63.4452 25.3484C62.6377 25.7367 61.7562 25.9471 60.8604 25.9652H59.8911C59.4843 25.9522 59.0803 25.893 58.6868 25.789C58.178 25.6591 57.6925 25.4511 57.2476 25.1721C56.7446 24.8394 56.3229 24.3977 56.0139 23.8798C55.6387 23.2339 55.4176 22.5102 55.3677 21.7649C55.3384 21.5604 55.3384 21.3527 55.3677 21.1481C55.3677 20.9131 55.3971 20.6488 55.4265 20.2963L55.5146 19.1801C55.5606 18.6666 55.6391 18.1564 55.7496 17.6528C55.8794 17.0492 56.1513 16.4853 56.5426 16.0079C57.0288 15.4338 57.6424 14.9812 58.3344 14.6861C59.1274 14.3336 60.2142 14.1574 61.5947 14.1574H65.9419L66.03 13.2469C66.0543 13.131 66.0642 13.0126 66.0594 12.8944V12.63C66.0625 12.535 66.0395 12.441 65.9929 12.3581C65.9463 12.2752 65.8778 12.2067 65.795 12.1601C65.662 12.0805 65.5094 12.0398 65.3544 12.0426H58.5693L58.8924 7.75417H67.7924C69.026 7.75417 69.9072 8.0479 70.4653 8.63535C71.0185 9.22794 71.3415 9.99893 71.3758 10.8089ZM61.2129 17.7115C61.0304 17.7067 60.8526 17.7694 60.7135 17.8877C60.6367 17.954 60.5737 18.0348 60.5284 18.1256C60.483 18.2163 60.4561 18.3152 60.4492 18.4164L60.273 19.9438C60.2491 20.1682 60.2393 20.3938 60.2436 20.6194C60.2816 20.8841 60.3823 21.1358 60.5373 21.3537C60.7135 21.6181 61.0366 21.7355 61.536 21.7355C62.2001 21.7249 62.8606 21.6362 63.5039 21.4712C64.1755 21.3268 64.8267 21.0999 65.4425 20.7956L65.6481 17.7409L61.2129 17.7115ZM91.0261 12.2776C91.0555 12.7961 91.0555 13.3158 91.0261 13.8343L90.5855 19.5326C90.4386 21.3831 89.8806 22.8517 88.8819 23.9679C87.8832 25.084 86.4733 25.6421 84.6229 25.6421H78.484L78.0728 30.6355H72.8151L74.6362 7.75417H78.9246L79.4239 9.07594C79.8351 8.89971 80.3345 8.72347 80.8925 8.51786C81.4506 8.31225 82.0381 8.13602 82.6549 7.95978C83.2717 7.78355 83.8886 7.66606 84.5054 7.54857C85.086 7.43465 85.6761 7.37565 86.2677 7.37233C86.9243 7.35961 87.5758 7.4899 88.177 7.75417C88.7289 8.01064 89.2273 8.36945 89.6456 8.81159C90.0624 9.26597 90.391 9.79385 90.6149 10.3683C90.8307 10.9852 90.9688 11.6265 91.0261 12.2776ZM85.7978 13.7756C85.7886 13.3999 85.6542 13.0381 85.4159 12.7475C85.1809 12.4832 84.7697 12.3657 84.1823 12.3657C83.8772 12.3752 83.573 12.4046 83.2717 12.4538L81.9793 12.63C81.5387 12.7181 81.0688 12.7769 80.6282 12.865C80.1876 12.9531 79.8058 13.0412 79.512 13.1L78.8658 20.9719H84.5641C84.6608 20.9835 84.7589 20.9735 84.8512 20.9426C84.9436 20.9117 85.0279 20.8607 85.0982 20.7932C85.1684 20.7258 85.2228 20.6436 85.2575 20.5526C85.2921 20.4616 85.3061 20.364 85.2984 20.2669L85.739 14.6274C85.7655 14.4821 85.7754 14.3343 85.7684 14.1868C85.79 14.0508 85.7998 13.9132 85.7978 13.7756ZM98.3399 25.6127H92.9353L94.3746 7.7248H99.7792L98.3399 25.6127ZM100.102 5.60997H94.404L94.6683 2.34961H100.367L100.102 5.60997ZM113.056 12.3951H112.38C111.519 12.3878 110.661 12.4864 109.825 12.6888C109.002 12.8944 108.297 13.0706 107.739 13.2762L106.74 25.6127H101.307L102.746 7.7248H107.181L107.651 9.19343C108.071 8.96506 108.502 8.75917 108.943 8.57661C109.413 8.371 109.913 8.16539 110.441 7.98916C110.952 7.80568 111.471 7.64882 111.998 7.51919C112.48 7.40779 112.972 7.3487 113.467 7.34296L113.056 12.3951ZM131.795 19.5326C131.678 21.3243 131.12 22.793 130.15 23.9385C129.181 25.084 127.771 25.6421 125.891 25.6421H118.695C117.432 25.6421 116.433 25.2896 115.728 24.5847C115.024 23.8798 114.612 22.9105 114.495 21.6474C114.465 21.4429 114.465 21.2352 114.495 21.0306C114.495 20.8544 114.524 20.5019 114.554 20.0026L114.994 13.8343C115.035 13.0105 115.204 12.198 115.494 11.4258C115.732 10.7051 116.123 10.044 116.639 9.48716C117.156 8.93631 117.788 8.50524 118.49 8.22414C119.313 7.90296 120.191 7.74339 121.074 7.75417H128.241C129.475 7.75417 130.444 8.16539 131.12 8.98783C131.815 9.88412 132.225 10.9691 132.295 12.1013C132.295 12.2776 132.324 12.4832 132.324 12.6888C132.33 12.8948 132.321 13.1011 132.295 13.3056L131.795 19.5326ZM127.096 13.5406C127.096 13.3851 127.058 13.232 126.987 13.094C126.915 12.956 126.811 12.8372 126.684 12.7475C126.428 12.5646 126.118 12.4716 125.803 12.4832H120.927C120.487 12.4832 120.252 12.7182 120.223 13.1881L119.811 18.7689C119.786 18.9044 119.776 19.0424 119.782 19.1801V19.562C119.794 19.8531 119.921 20.1276 120.134 20.3257C120.397 20.5438 120.735 20.6494 121.074 20.6194H125.891C125.988 20.631 126.086 20.621 126.179 20.5901C126.271 20.5592 126.355 20.5082 126.425 20.4408C126.496 20.3733 126.55 20.2911 126.585 20.2001C126.619 20.1091 126.633 20.0115 126.626 19.9144L127.066 14.128C127.091 14.0122 127.101 13.8938 127.096 13.7756V13.5406ZM152.004 11.8076C152.033 12.1013 152.033 12.4244 152.033 12.7475C152.033 13.0706 152.004 13.4525 152.004 13.8343L151.093 25.6127H145.806L146.629 14.9798C146.665 14.6385 146.675 14.2947 146.658 13.9518C146.57 12.8944 146.07 12.3657 145.131 12.3657C144.381 12.3846 143.635 12.4631 142.898 12.6007C142.017 12.7475 141.224 12.9238 140.548 13.1L139.491 25.6127H134.233L135.673 7.7248H139.961L140.46 9.04657C140.989 8.81159 141.547 8.60598 142.134 8.40037C142.732 8.19323 143.34 8.01677 143.956 7.87166C144.572 7.7248 145.16 7.60731 145.718 7.48982C146.233 7.40262 146.753 7.35353 147.275 7.34296C147.767 7.34057 148.258 7.37987 148.743 7.46045C149.275 7.54473 149.784 7.73448 150.241 8.01853C150.75 8.34828 151.164 8.80352 151.446 9.3403C151.788 10.1195 151.977 10.9571 152.004 11.8076ZM169.98 11.837C170.009 12.0415 170.009 12.2492 169.98 12.4538C169.98 12.6594 169.95 12.8356 169.95 12.9825L169.804 14.4218C169.763 14.9119 169.619 15.3878 169.381 15.8182C169.143 16.2485 168.817 16.6235 168.423 16.9184C167.553 17.5764 166.534 18.0102 165.456 18.1815C165.023 18.285 164.58 18.3441 164.135 18.3577C163.577 18.4164 163.018 18.4458 162.402 18.4752C161.785 18.5046 161.227 18.5339 160.727 18.5633C160.228 18.5927 159.817 18.5927 159.582 18.5927L159.523 19.3564C159.508 19.4832 159.508 19.6114 159.523 19.7382L159.552 19.9732C159.573 20.3112 159.708 20.6322 159.934 20.8837C160.169 21.1481 160.581 21.295 161.168 21.295C161.755 21.295 162.46 21.2656 163.224 21.2068C163.988 21.1481 164.751 21.06 165.544 20.9719C166.338 20.8837 167.072 20.7956 167.777 20.6488C168.41 20.5443 169.038 20.4071 169.657 20.2375L169.334 24.2029C168.732 24.4587 168.113 24.6745 167.483 24.849C166.749 25.0547 165.985 25.2309 165.192 25.4071C164.399 25.5834 163.577 25.7009 162.754 25.789C162.013 25.8771 161.268 25.9261 160.522 25.9358C159.932 25.9332 159.344 25.8939 158.759 25.8183C158.061 25.7394 157.383 25.5302 156.762 25.2015C156.094 24.8542 155.519 24.3504 155.088 23.7329C154.618 23.0867 154.324 22.2055 154.236 21.0306C154.211 20.7769 154.201 20.5218 154.207 20.2669C154.207 20.0026 154.236 19.7382 154.265 19.4445L154.706 13.7462C154.755 12.9547 154.913 12.1738 155.176 11.4258C155.428 10.7114 155.818 10.053 156.321 9.48716C156.839 8.90219 157.482 8.44053 158.201 8.13602C159.068 7.78553 159.998 7.61562 160.933 7.63668H164.722C165.624 7.60401 166.523 7.75387 167.366 8.07727C167.953 8.31686 168.483 8.67711 168.922 9.13469C169.283 9.50998 169.554 9.9618 169.715 10.4565C169.839 10.9091 169.927 11.3707 169.98 11.837ZM161.638 12.0426C161.282 12.0592 160.937 12.1707 160.639 12.3657C160.454 12.4884 160.302 12.654 160.194 12.8483C160.087 13.0426 160.028 13.2599 160.022 13.4818L159.817 15.4498C159.964 15.4498 160.228 15.4498 160.639 15.4204C161.081 15.4184 161.523 15.389 161.961 15.3323C162.431 15.3029 162.872 15.2442 163.283 15.2148C163.588 15.1912 163.892 15.1519 164.193 15.0973C164.553 15.0484 164.89 14.8952 165.163 14.6567C165.302 14.5017 165.411 14.3225 165.486 14.128C165.527 13.9838 165.556 13.8364 165.574 13.6874C165.596 13.5318 165.606 13.3747 165.603 13.2175C165.588 12.8955 165.452 12.5911 165.221 12.3657C165.096 12.2491 164.948 12.1602 164.786 12.1045C164.624 12.0489 164.452 12.0278 164.281 12.0426H161.638Z" fill="#5D8AB9"/>
</svg>
