<svg width="512" height="512" viewBox="0 0 512 512" fill="none" xmlns="http://www.w3.org/2000/svg">
    <path d="M256 512C187.6 512 123.35 485.35 75 437C26.65 388.65 0 324.4 0 256C0 187.6 26.65 123.35 75 75C123.35 26.65 187.6 0 256 0C324.4 0 391.5 27 435 73.5C442.967 82.0164 436.475 96.0205 430.5 101C424.5 106 414.5 109.5 405.5 103C350.742 63.4523 331.5 48 270 42.5C209.342 37.0753 147 64.4 104 107.5C61 150.6 42.5 195.1 42.5 256C42.5 316.9 61.95 362.95 105 406C148.05 449.05 191.984 468.496 253 469C313.5 469.5 360.95 450.55 404 407.5C447.05 364.45 468 314.9 468 254C468 246.3 479 234.5 491 234.5C500.014 234.5 512 244.8 512 252.5C512 320.9 485.4 388.7 437 437C388.6 485.3 324.4 512 256 512Z"
          fill="black"/>
</svg>
