<svg version="1.1" xmlns="http://www.w3.org/2000/svg" x="0px" y="0px"
     viewBox="0 0 512 512" style="enable-background:new 0 0 512 512;" xml:space="preserve">
<path d="M416.9,156.9l36.7-36.7c5.5-5.5,5.5-14.3,0-19.8c-5.5-5.5-14.3-5.5-19.8,0l-36.7,36.7c-35.6-31.3-79.8-49.6-127.1-52.6V28
	h34c7.7,0,14-6.3,14-14s-6.3-14-14-14h-96c-7.7,0-14,6.3-14,14s6.3,14,14,14h34v56.5c-51.9,3.3-100.2,25.1-137.3,62.2
	C64.3,187.1,42,240.8,42,298c0,57.2,22.3,110.9,62.7,151.3C145.1,489.7,198.8,512,256,512c57.2,0,110.9-22.3,151.3-62.7
	C447.7,408.9,470,355.2,470,298C470,245.5,451.2,196,416.9,156.9z M256,484c-102.6,0-186-83.4-186-186s83.4-186,186-186
	s186,83.4,186,186S358.6,484,256,484z M270,202v96c0,7.7-6.3,14-14,14c-7.7,0-14-6.3-14-14v-96c0-7.7,6.3-14,14-14
	C263.7,188,270,194.3,270,202z"/>
</svg>
