<svg version="1.1" xmlns="http://www.w3.org/2000/svg" x="0px" y="0px"
     viewBox="0 0 512 512" style="enable-background:new 0 0 512 512;" xml:space="preserve">
<path d="M436.9,75.1c-48-48-113-75-180.9-75.1c-50.6,0-100.1,15-142.2,43.1C71.7,71.3,38.9,111.3,19.5,158
	C0.1,204.8-5,256.3,4.9,305.9C14.8,355.5,39.2,401.2,75,437s81.4,60.2,131.1,70.1c49.7,9.9,101.1,4.8,147.9-14.6
	s86.8-52.2,114.9-94.3C497,356.1,512,306.6,512,256C511.9,188.1,484.9,123.1,436.9,75.1z M270,360c0,7.7-6.3,14-14,14s-14-6.3-14-14
	v-16c0-7.7,6.3-14,14-14s14,6.2,14,14V360z M270,280c0,7.7-6.3,14-14,14s-14-6.3-14-14V152c0-7.7,6.3-14,14-14s14,6.2,14,14V280z"/>
</svg>
