<svg width="512" height="512" viewBox="0 0 512 512" fill="none" xmlns="http://www.w3.org/2000/svg">
    <path d="M256 512C397.385 512 512 397.385 512 256C512 114.615 397.385 0 256 0C114.615 0 0 114.615 0 256C0 397.385 114.615 512 256 512Z"
          fill="#98C261"/>
    <path d="M339.2 168C326.4 136 296 134.4 259.2 140.8L246.4 96L219.2 104L232 147.2C225.6 148.8 217.6 152 209.6 153.6L196.8 108.8L169.6 116.8L182.4 161.6C176 163.2 171.2 164.8 164.8 166.4L128 179.2L136 208C136 208 156.8 201.6 155.2 201.6C166.4 198.4 171.2 203.2 174.4 209.6L188.8 260.8C188.8 260.8 190.4 260.8 192 260.8L188.8 262.4L209.6 334.4C209.6 337.6 209.6 344 201.6 347.2L182.4 353.6L185.6 387.2L220.8 377.6C227.2 376 233.6 374.4 240 372.8L252.8 417.6L280 409.6L267.2 364.8C275.2 363.2 281.6 361.6 289.6 358.4L302.4 403.2L329.6 395.2L316.8 350.4C361.6 334.4 390.4 313.6 382.4 268.8C376 233.6 355.2 222.4 326.4 224C342.4 208 348.8 192 339.2 168ZM329.6 276.8C339.2 310.4 280 323.2 260.8 329.6L243.2 268.8C262.4 264 318.4 241.6 329.6 276.8ZM291.2 195.2C300.8 225.6 251.2 236.8 235.2 241.6L219.2 187.2C235.2 182.4 283.2 163.2 291.2 195.2Z"
          fill="white"/>
</svg>
