<svg width="512" height="512" viewBox="0 0 512 512" fill="none" xmlns="http://www.w3.org/2000/svg">
<path d="M256 512C397.385 512 512 397.385 512 256C512 114.615 397.385 0 256 0C114.615 0 0 114.615 0 256C0 397.385 114.615 512 256 512Z" fill="#988430"/>
<path d="M255.999 503.8C392.855 503.8 503.799 392.856 503.799 256C503.799 119.144 392.855 8.2002 255.999 8.2002C119.143 8.2002 8.19922 119.144 8.19922 256C8.19922 392.856 119.143 503.8 255.999 503.8Z" fill="#7A6A2A"/>
<path d="M256.001 498.578C389.973 498.578 498.579 389.972 498.579 256C498.579 122.027 389.973 13.4209 256.001 13.4209C122.028 13.4209 13.4219 122.027 13.4219 256C13.4219 389.972 122.028 498.578 256.001 498.578Z" fill="#BA9F33"/>
<path fill-rule="evenodd" clip-rule="evenodd" d="M111.928 228.661C110.478 227.337 108.946 226.01 107.537 224.685C106.128 223.361 104.681 222.034 103.231 220.709L98.9216 216.613C98.2171 215.909 97.4716 215.289 96.7671 214.582C96.0626 213.962 95.2352 213.257 94.5307 212.635C88.8127 207.209 83.0619 201.783 77.4231 196.354C83.264 201.698 88.982 207.004 94.8229 212.427L96.8518 214.459C97.5563 215.161 98.3018 215.783 99.0063 216.488L103.313 220.464C104.763 221.788 106.172 223.115 107.622 224.56C109.072 226.004 110.481 227.334 111.931 228.656L111.928 228.661ZM36.0398 227.842C36.0398 227.842 56.8339 229.994 66.9838 231.444C76.3854 232.771 105.797 237.284 105.797 237.284L36.0398 227.842ZM36.0398 227.842C41.8807 228.339 47.7216 228.959 53.5625 229.581C56.5444 229.871 59.4034 230.201 62.2624 230.491L66.6506 230.99C68.1006 231.195 69.5096 231.403 70.9596 231.61L88.3594 234.384L97.0566 235.834C99.9156 236.331 102.775 236.872 105.756 237.369C102.897 237.08 99.9156 236.665 97.0566 236.25L88.3594 235.007L70.9596 232.44C69.5096 232.233 68.1006 231.941 66.6506 231.736L62.2597 231.231C59.4007 230.941 56.4188 230.526 53.5598 230.193C47.7189 229.491 41.878 228.743 36.0371 227.834L36.0398 227.842ZM103.728 242.702C103.728 242.702 81.5246 248.338 74.0261 250.493C66.6533 252.522 44.3247 259.315 44.3247 259.315L103.725 242.705L103.728 242.702Z" fill="#CFB66C"/>
<path fill-rule="evenodd" clip-rule="evenodd" d="M103.724 242.701C98.795 244.151 93.8935 245.56 88.8936 246.887L74.0634 250.863C69.1345 252.313 64.233 253.722 59.3178 255.172L51.945 257.201C49.501 257.906 47.0161 258.525 44.4902 259.233C46.9315 258.413 49.4191 257.575 51.863 256.871L59.2358 254.511C64.1647 252.977 69.0662 251.527 73.9814 249.995C78.9922 248.752 83.9238 247.425 88.9346 246.224C93.6969 245.022 98.7104 243.823 103.724 242.704V242.701ZM47.4312 272.984C49.8724 272.072 78.0419 258.943 84.5873 255.877C87.8641 254.342 97.3887 250.961 97.3887 250.961L47.4312 272.984Z" fill="#CFB66C"/>
<path fill-rule="evenodd" clip-rule="evenodd" d="M47.4324 272.984C49.5842 272.165 51.6158 271.163 53.6856 270.21L59.816 267.351L72.1204 261.428C76.2164 259.481 80.1977 257.332 84.422 255.503C86.5765 254.593 88.731 253.848 90.8828 253.143L94.1596 252.108C95.2764 251.819 96.3141 251.486 97.4364 251.196C93.3404 253.143 89.0287 254.801 84.9272 256.704C80.8312 258.736 76.6424 260.393 72.4153 262.215L59.9061 267.722C55.7063 269.423 51.6103 271.245 47.4297 272.984H47.4324ZM50.1631 284.453C50.1631 284.453 75.6784 269.5 84.4603 264.694C89.0587 262.127 103.93 254.752 103.93 254.752L50.1631 284.453Z" fill="#CFB66C"/>
<path fill-rule="evenodd" clip-rule="evenodd" d="M50.166 284.459C54.4723 281.808 58.8632 279.115 63.2541 276.382L69.8077 272.403C72.0441 271.079 74.1986 269.836 76.4787 268.512C78.7151 267.185 80.8696 265.861 83.147 264.618C84.2312 263.949 85.3671 263.367 86.544 262.879L90.0228 261.139C94.6213 258.903 99.2197 256.623 104.067 254.676C99.6757 257.453 95.1592 259.815 90.6454 262.256C88.409 263.499 86.1289 264.618 83.8925 265.861C81.6561 267.103 79.5016 268.43 77.2215 269.632C74.985 270.956 72.8305 272.198 70.5532 273.4L63.8002 277.086L50.1715 284.459H50.166ZM103.725 258.029C103.725 258.029 87.8601 270.208 82.7238 274.102C77.5874 277.996 62.4677 288.932 62.4677 288.932L103.725 258.029Z" fill="#CFB66C"/>
<path fill-rule="evenodd" clip-rule="evenodd" d="M194.776 356.246L186.658 340.877L191.38 321.656L225.057 308.65L210.724 279.241L217.807 249.539L231.105 222.943L272.199 216.482L302.395 187.692L367.598 192.621L380.396 262.338L355.749 350.115L341.708 395.559L284.79 397.713L258.363 379.404L227.419 366.477L194.776 356.246Z" fill="#E2CC85"/>
<path fill-rule="evenodd" clip-rule="evenodd" d="M294.608 355.748C294.608 355.748 286.736 359.353 273.309 358.523C269.423 353.304 242.209 350.861 242.209 350.861C242.209 350.861 238.812 349.826 232.805 352.31C226.759 354.768 221.041 354.465 215.697 355.789C210.353 357.114 205.048 350.156 200.952 348.706C196.856 347.174 191.424 343.488 191.424 343.488L179.956 342.368L156.925 332.633L120.337 296.182L110.395 311.746L107.328 331.009L118.39 353.834L148.173 380.966L206.249 395.712L240.672 385.57L283.795 367.343L294.608 355.746V355.748Z" fill="#F1D789"/>
<path fill-rule="evenodd" clip-rule="evenodd" d="M88.2749 226.921L95.6477 204.595L104.432 190.177L132.722 187.815L124.23 212.588L100.579 254.676L110.396 292.247L92.999 300.944L87.6523 292.744L83.3461 273.938L83.0566 252.811L88.2749 226.921Z" fill="#F4ECB4"/>
<path fill-rule="evenodd" clip-rule="evenodd" d="M120.004 354.216L114.578 346.636C114.578 346.636 113.128 343.031 113.958 339.883C114.778 336.694 114.66 336.486 114.248 335.284C113.835 334.083 110.354 329.941 110.561 326.377C110.766 322.773 110.272 321.571 112.921 318.715C115.695 315.94 114.868 311.134 114.868 311.134L118.472 313.371L119.291 312.128C119.291 312.128 120.616 313.163 120.616 314.78C120.905 312.544 119.704 302.186 122.437 299.827C125.17 297.467 130.017 310.886 130.017 310.886L127.035 291.416L119.371 271.452L105.742 253.225L104.923 233.133V231.394C104.923 231.394 98.6666 241.006 96.9272 248.597C95.6847 253.815 98.6666 260.153 98.0467 267.651C97.547 275.109 96.9272 274.527 98.7485 277.482C100.57 280.436 105.004 286.512 103.265 290.903C101.733 294.674 96.5121 292.023 96.5121 292.023C96.5121 292.023 95.4772 295.086 94.0681 296.206C93.5712 294.385 93.0332 293.224 92.0393 292.11C91.9546 292.814 91.7498 293.767 91.7498 293.767C91.7498 293.767 90.8378 290.908 89.9257 287.304C88.686 282.501 87.3589 276.163 86.1574 272.766C85.6604 274.713 84.418 280.636 84.418 280.636L85.1225 289.751L88.5194 302.26L91.7962 310.452L94.9857 320.476L97.7573 327.21L99.9937 332.346L101.941 343.905L111.342 353.845L116.356 356.084L119.999 354.219L120.004 354.216Z" fill="#F3E19D"/>
<path fill-rule="evenodd" clip-rule="evenodd" d="M93.2035 208.694C93.2035 208.694 86.4506 220.163 84.5064 231.725C82.5621 243.286 80.82 255.503 82.0488 271.243C83.2912 287.111 85.6532 296.843 87.5592 303.803C90.836 315.362 99.323 331.435 99.323 331.435L99.6124 330.812C98.1859 328.108 97.0473 325.262 96.2155 322.32C95.0959 317.929 94.6808 312.711 93.6459 310.349C92.7339 307.989 91.202 305.958 90.4565 303.058C89.752 300.283 89.6373 295.892 87.4746 292.621C86.5626 291.294 85.443 287.815 85.1126 284.336C84.6975 279.115 85.3201 273.274 84.8231 268.471C83.9111 260.476 83.2912 255.05 84.1186 250.864C84.946 246.678 89.2577 234.794 91.9092 225.348C93.6486 219.3 92.611 214.205 95.8004 208.943C98.9898 203.724 100.94 199.126 101.641 195.936C102.46 193.036 93.1926 208.694 93.1926 208.694H93.2035Z" fill="#F2E8B0"/>
<path fill-rule="evenodd" clip-rule="evenodd" d="M125.227 204.096C125.227 204.096 121.748 205.133 120.09 206.955C118.433 208.694 117.728 210.144 115.492 213.085C113.255 216.026 113.13 218.429 111.306 222.115C109.484 225.72 105.465 231.146 104.968 233.093C104.471 235.04 103.643 244.152 102.608 248.461C101.696 252.77 103.643 258.073 103.643 258.073L106.003 257.573C106.003 257.573 106.003 260.64 108.365 262.712C110.724 264.741 111.139 255.834 111.139 255.834L119.962 226.05L133.257 217.02L134.707 209.729L125.221 204.096H125.227Z" fill="#F5EEC0"/>
<path fill-rule="evenodd" clip-rule="evenodd" d="M131.686 217.601C131.686 217.601 125.43 218.014 122.366 220.253C121.124 221.162 120.627 221.907 119.302 223.027C116.858 225.056 114.371 226.921 113.172 229.581C111.845 232.229 110.395 236.249 109.401 243.829C108.986 247.019 108.986 249.96 108.696 252.529C108.281 256.008 107.661 258.782 107.992 260.721C108.407 264.697 112.508 266.77 112.907 271.283L121.399 266.977L129.395 235.452L146.38 224.802L136.768 214.032L131.675 217.582L131.686 217.601Z" fill="#E6DB9D"/>
<path fill-rule="evenodd" clip-rule="evenodd" d="M86.8836 429.886C86.9191 429.575 86.9546 429.263 86.9901 428.944C88.2298 418.294 88.4401 410.222 89.3494 405.168C90.6737 398.003 91.5858 395.338 91.3783 392.656C91.0888 388.35 90.7584 385.201 91.1735 381.886C91.7933 377.495 96.1023 372.277 95.9794 368.673C95.8948 365.814 94.4448 363.951 93.2024 362.212C91.9599 360.472 90.9659 359.022 90.9659 359.022C90.9659 359.022 99.4583 353.182 99.3764 329.651C99.5498 329.7 99.7167 329.77 99.8734 329.859L104.057 341.745L106.916 345.224L117.893 365.688L132.019 379.401L152.895 393.442L165.986 407.688L167.31 445.675L150.202 467.878L147.401 472.951C125.142 461.777 104.731 447.252 86.8809 429.883L86.8836 429.886Z" fill="#E5CB7A"/>
<path fill-rule="evenodd" clip-rule="evenodd" d="M139.145 466.226C139.145 466.226 139.434 461.504 143.328 458.438C143.951 459.473 144.363 460.469 144.24 461.212C144.944 459.972 149.873 452.018 161.017 449.945C172.161 447.916 174.853 439.798 174.853 439.798L198.504 418.3L225.554 393.404L258.445 381.845L273.816 378.074C273.816 378.074 274.105 379.194 273.526 381.679C276.382 381.474 282.72 380.024 289.307 377.703C291.958 376.668 294.446 376.253 295.77 377.621C297.717 379.442 298.007 383.751 298.129 386.318C301.319 385.614 305.005 382.55 307.96 382.839C312.684 383.336 316.867 388.888 321.673 388.888C328.011 388.888 330.867 384.994 335.302 381.927C337.953 380.106 341.763 377.831 343.917 376.294C349.054 372.523 403.402 355.912 403.402 355.912L422.457 357.155L425.523 377.618L423.885 431.112C423.683 431.306 423.481 431.508 423.276 431.702L336.637 476.952L216.543 495.362C189.641 490.967 163.68 482.037 139.767 468.954L139.153 466.223L139.145 466.226Z" fill="#D8C173"/>
<path fill-rule="evenodd" clip-rule="evenodd" d="M94.168 436.691C95.8746 433.122 97.4093 430.137 97.6796 429.069C97.8926 431.221 98.2831 435.942 99.0695 440.961C97.4184 439.558 95.7845 438.133 94.168 436.688V436.691Z" fill="#F1D789"/>
<path fill-rule="evenodd" clip-rule="evenodd" d="M181.896 487.034L197.428 482.714L198.752 483.129C198.752 483.129 199.457 483.544 199.457 484.95C201.404 483.833 203.061 484.038 204.263 483.295C204.883 484.62 205.503 489.011 208.239 489.549C211.095 490.171 214.162 488.306 217.269 485.947C220.333 483.503 223.823 480.436 226.463 479.194C227.432 480.975 228.29 482.815 229.033 484.702C232.512 481.927 238.56 470.66 247.175 470.865C249.666 464.981 253.826 459.955 259.141 456.409C267.137 450.983 272.147 450.568 278.403 451.065C280.888 447.838 283.95 445.099 287.434 442.988C288.469 443.403 291.328 445.142 294.891 443.485C298.496 441.83 302.553 435.408 307.897 434.58C310.777 434.184 313.705 434.799 316.182 436.32C316.182 436.32 331.747 420.867 342.487 415.73C342.072 414.488 341.244 409.808 353.835 399.45C354.54 400.073 354.043 401.812 354.54 401.908C354.745 401.908 357.817 400.583 361.705 397.599C366.511 393.997 372.267 390.226 375.746 389.191C382.3 387.244 389.252 391.22 389.252 391.22C389.843 390.805 390.502 390.497 391.199 390.308C392.854 390.018 394.055 389.811 394.967 389.489C394.885 391.643 396.087 395.33 394.967 398.519C396.264 399.248 397.638 399.832 399.063 400.258C398.361 401.79 396.827 405.684 394.26 407.549C396.412 408.584 396.701 409.786 399.768 410.826C398.525 412.566 396.491 415.55 395.584 417.38C394.672 419.327 391.398 427.404 389.948 430.468C388.416 433.534 386.347 439.168 385.35 440.298C384.353 441.429 380.751 446.221 377.977 448.58C380.435 447.668 390.489 444.604 394.754 443.444C393.485 445.306 387.048 454.855 380.861 464.039C351.234 481.796 318.163 493.035 283.852 497.007C249.541 500.979 214.777 497.593 181.877 487.075L181.896 487.034Z" fill="#E0CD81"/>
<path fill-rule="evenodd" clip-rule="evenodd" d="M132.71 216.482C132.71 216.482 129.108 216.482 128.403 216.979C127.699 217.476 132.008 218.514 133.332 219.011C134.657 219.508 137.516 221.785 138.261 223.609C138.966 225.349 164.151 235.496 164.151 235.496L181.963 234.584L188.104 226.1L176.422 215.868L184.614 191.718L173.763 193.457L147.666 209.022L134.575 214.036L132.71 216.482Z" fill="#DFC57C"/>
<path fill-rule="evenodd" clip-rule="evenodd" d="M171.828 224.478C172.086 224.894 172.448 225.236 172.88 225.469C173.311 225.701 173.796 225.816 174.286 225.802C177.972 225.802 181.366 226.714 182.775 228.576C185.137 231.561 191.683 241.088 191.683 241.088L207.34 246.722L208.351 228.284L191.243 216.397L171.773 223.563V224.475H171.817L171.828 224.478Z" fill="#E5CC7C"/>
<path fill-rule="evenodd" clip-rule="evenodd" d="M168.754 231.312C168.754 231.312 171.611 231.52 175.215 230.192C178.82 228.865 184.742 226.009 187.312 227.129C190.914 228.661 190.168 233.467 194.065 237.778C196.424 240.43 200.733 240.348 203.177 243.207C205.621 246.066 214.029 244.739 214.029 244.739L217.218 261.942L204.42 278.348L200.234 298.727H182.927L167.116 292.454L159.328 273.613L163.222 254.558L168.754 231.312Z" fill="#D2C281"/>
<path fill-rule="evenodd" clip-rule="evenodd" d="M202.233 232.14C202.662 232.272 203.108 232.342 203.557 232.347C203.06 232.762 202.022 233.672 202.437 236.034C202.852 238.396 204.177 241.377 203.06 243.199C203.952 244.174 204.616 245.334 205.007 246.596C205.711 248.627 205.919 250.49 210.515 250.782C209.851 251.19 209.24 251.677 208.693 252.232C208.693 252.232 211.883 255.006 213.499 257.573C215.154 257.502 219.545 256.137 219.545 256.137L220.457 256.759L222.404 255.94C222.404 255.94 220.583 255.236 221.907 250.804C223.15 246.91 224.269 247.117 224.365 246.828C224.46 246.538 225.277 242.437 225.277 240.779C225.897 238.628 226.394 232.082 226.394 232.082L225.069 217.626L217.614 213.11L211.552 207.258L205.834 218.028L202.069 221.782L201.779 231.102L202.233 232.14Z" fill="#E2C270"/>
<path fill-rule="evenodd" clip-rule="evenodd" d="M220.168 220.045C220.168 220.045 221.492 223.814 221.992 226.714C222.168 226.15 222.266 225.565 222.282 224.974C222.282 224.974 223.316 230.692 223.521 233.054C223.936 232.97 224.34 232.847 224.433 233.259C224.526 233.671 225.471 238.273 225.252 240.839C226.977 237.994 229.364 235.607 232.21 233.882C233.868 232.844 235.815 231.727 237.846 231.643C241.036 231.561 243.354 233.674 247.166 233.674C256.36 233.674 264.689 226.921 270.819 224.851C275.333 223.317 279.227 222.2 281.96 219.712C283.287 218.595 285.649 216.111 287.801 212.421C290.66 207.506 293.642 203.227 296.627 202.689C295.276 202.937 293.902 203.035 292.531 202.979C292.531 202.979 293.443 202.067 294.988 200.824C296.534 199.582 298.385 198.05 301.034 198.05C305.758 198.05 308.117 198.752 310.769 198.752C313.42 198.67 314.952 198.05 314.952 198.05C314.952 198.05 317.729 199.997 323.982 199.997C330.238 200.079 334.422 200.617 337.696 200.909C340.97 201.201 351.944 199.997 355.093 200.09C357.146 200.169 359.161 200.662 361.018 201.54L350.869 172.049L314.409 140.182L292.703 155.55L259.312 188.938L227.003 200.909L220.25 208.489V220.045H220.168Z" fill="#CCB360"/>
<path fill-rule="evenodd" clip-rule="evenodd" d="M292.662 203.142C292.662 203.142 293.574 202.233 295.103 200.99C296.632 199.748 298.502 198.213 301.151 198.213C305.872 198.213 308.235 198.918 310.886 198.918C313.537 198.836 315.069 198.213 315.069 198.213C315.069 198.213 317.849 200.158 324.1 200.158C330.356 200.24 334.539 200.777 337.813 201.067C341.087 201.356 352.062 200.158 355.21 200.248C357.262 200.325 359.277 200.818 361.133 201.698L356.535 188.399L351.193 178.252L335.948 161.557C335.948 161.557 317.653 150.787 317.513 150.705C317.431 150.623 311.175 148.966 311.175 148.966L294.606 158.99L279.571 197.888L279.281 206.08L289.013 210.679C291.457 206.583 294.152 203.306 296.678 202.891C294.398 203.14 292.659 203.14 292.659 203.14L292.662 203.142Z" fill="#D5B457"/>
<path fill-rule="evenodd" clip-rule="evenodd" d="M292.454 205.919C291.004 206.001 289.805 205.712 289.472 204.677C288.23 201.198 287.236 200.701 286.195 200.701C285.155 200.701 283.751 202.937 282.918 203.142C282.086 203.347 281.097 200.575 281.097 200.575L280.185 200.16C280.185 200.16 274.841 203.639 271.073 207.74C267.304 211.842 261.13 218.802 258.356 220.042C255.582 221.282 246.052 221.7 242.791 222.404C239.531 223.109 235.915 225.471 235.418 226.009C234.922 226.547 236.871 227.125 237.161 227.663C237.45 228.16 233.969 227.953 233.679 228.483C233.474 228.898 234.498 231.257 235.006 232.458C235.895 232.017 236.87 231.776 237.862 231.754C241.052 231.672 243.373 233.786 247.182 233.786C256.379 233.786 264.705 227.033 270.835 224.96C275.352 223.428 279.246 222.309 281.979 219.824C283.303 218.707 285.665 216.219 287.82 212.533C289.393 210.007 290.927 207.645 292.462 205.905L292.454 205.919Z" fill="#D2B257"/>
<path fill-rule="evenodd" clip-rule="evenodd" d="M160.563 410.927C160.563 410.927 159.744 407.86 152.153 399.949C149.998 397.713 148.674 395.853 147.224 394.524C143.619 391.124 141.506 390.215 138.939 388.268C133.306 384.084 127.175 384.084 122.454 378.948C117.733 373.811 112.23 363.997 108.408 353.968C104.639 343.943 103.602 340.754 103.602 340.465C103.602 340.175 104.639 338.228 105.964 338.518C107.288 338.807 107.288 341.374 107.621 341.996C108.281 343.013 109.029 343.968 109.858 344.853C111.804 347.092 114.579 349.768 115.988 353.76C115.698 350.363 114.538 346.595 114.538 346.595C114.538 346.595 121.829 351.193 128.041 355.997C134.297 360.803 136.864 362.46 138.691 365.524C140.517 368.588 144.821 376.668 146.883 379.03C148.944 381.392 177.193 390.296 177.193 390.296L190.631 400.315L197.302 414.938L192.081 423.13L182.056 425.284L165.776 417.994L160.563 410.924V410.927Z" fill="#D2B159"/>
<path fill-rule="evenodd" clip-rule="evenodd" d="M124.396 360.554C124.396 360.554 127.793 365.98 136.078 371.116C143.536 375.633 155.34 379.734 165.864 382.178C171.91 383.628 177.959 384.745 183.384 384.83C198.007 385.035 208.072 380.854 220.543 379.486C227.296 378.781 235.581 378.243 244.196 376.209C255.256 373.558 261.801 370.573 270.708 366.379C277.169 363.397 283.095 361.16 287.898 358.301C294.651 354.326 299.58 349.894 305.298 348.569C304.593 350.516 303.848 353.995 298.214 357.6C301.196 357.515 305.298 357.31 305.298 357.31C305.298 357.31 301.322 359.669 294.32 364.972C290.011 368.249 284.296 373.795 278.455 377.482C274.684 379.844 270.583 381.578 267.89 382.992C261.337 386.597 258.693 388.418 254.387 392.823C255.919 392.741 256.045 392.823 256.045 392.823C256.045 392.823 250.616 393.527 246.725 395.597C245.906 395.597 244.486 395.307 242.001 396.012C240.054 396.632 237.484 398.044 234.836 398.786C231.065 399.906 229.825 399.409 229.825 399.409L230.445 400.651C230.445 400.651 225.529 400.567 223.891 400.733C224.181 400.815 224.099 400.941 224.099 400.941C223.811 400.989 223.534 401.087 223.279 401.23C222.491 401.741 221.624 402.118 220.713 402.347C220.216 402.429 219.801 402.429 219.178 402.555C219.385 403.052 221.002 405.831 221.747 407.47C221.128 407.885 211.805 414.927 211.805 414.927C212.094 415.382 212.331 415.869 212.51 416.377C212.799 417.287 212.925 418.614 213.214 419.234C213.916 420.476 214.331 420.684 214.331 420.684C214.331 420.684 213.214 420.891 211.264 421.388C209.61 421.803 207.578 422.505 204.711 422.92C203.831 423.034 202.946 423.104 202.059 423.127C202.474 424.04 204.296 427.518 200.94 431.535C197.584 435.552 196.549 436.136 195.514 438.703C194.993 438.309 194.438 437.962 193.856 437.666C192.74 437.169 191.205 436.426 190.667 435.429C190.353 436.757 189.938 438.059 189.425 439.323C188.39 442.097 186.858 444.834 186.568 446.903C185.449 445.661 183.379 443.217 180.52 443.714C177.661 444.211 175.383 448.105 174.887 449.224C174.887 448.52 174.39 447.982 174.267 448.809C174.182 449.721 172.609 459.246 163.827 466.952C163.745 465.005 163.745 460.696 163.538 459.29C162.719 460.109 161.717 461.319 155.75 463.888C149.909 466.455 150.835 469.025 150.835 469.025C150.835 469.025 150.338 464.928 153.486 460.614C156.676 456.308 158.623 454.276 158.623 453.946C158.571 453.609 158.428 453.294 158.208 453.034C157.793 452.619 156.965 452.122 156.965 451.791C157.462 451.586 162.391 449.224 162.102 444.334C161.812 439.946 159.95 437.666 158.623 436.052C158.418 435.844 160.572 434.312 160.28 433.815C160.073 433.526 157.424 431.576 157.091 430.539C157.169 429.919 157.308 429.309 157.506 428.717C157.795 427.805 158.003 427.182 157.921 426.563C157.713 425.528 156.594 422.669 156.263 422.379C156.553 422.461 158.623 422.379 158.623 422.379C158.623 422.379 156.968 419.728 156.676 418.485C156.384 417.243 155.764 413.969 155.433 413.349C156.138 413.431 157.877 413.554 157.877 413.349C157.962 412.726 156.345 411.691 157.058 410.891C157.555 410.973 158.508 411.388 159.417 412.549C158.92 411.222 158.093 408.655 156.351 407.62C157.17 407.331 159.955 406.582 162.399 408.032C164.843 409.482 165.676 411.511 165.676 411.511C165.676 411.511 167.126 412.631 169.365 414.288C171.932 416.317 175.203 419.203 180.424 421.246C181.544 421.869 184.4 421.869 186.473 421.454C187.375 421.239 188.24 420.89 189.04 420.419C189.328 420.249 189.634 420.109 189.952 420.004C189.506 419.11 188.994 418.251 188.42 417.434C189.124 417.434 189.952 417.519 189.952 417.519C189.952 417.519 190.449 416.399 188.212 414.242C188.709 413.745 189.332 413.423 189.332 412.584C188.627 412.502 187.385 411.467 187.095 411.052C187.508 410.763 188.13 409.81 188.835 409.521C188.212 409.024 186.68 406.951 185.976 406.746C186.649 406.496 187.3 406.191 187.923 405.834C187.923 405.834 184.444 404.922 183.324 404.177C182.205 403.357 180.55 401.94 179.556 401.525C178.518 401.11 176.697 400.905 175.951 400.075C176.653 400.283 177.773 400.075 178.603 400.075C179.223 400.075 179.515 400.157 179.72 400.157C179.638 399.868 179.638 399.245 181.254 399.04C182.032 398.923 182.787 398.685 183.491 398.336C183.491 398.336 181.956 398.254 180.214 396.596C178.472 394.939 177.025 393.614 176.031 393.407C174.996 393.199 173.049 394.111 171.847 394.027C170.19 393.822 169.485 392.992 169.485 392.992C169.485 392.992 163.978 393.489 151.758 386.034C141.193 379.571 136.594 373.855 136.594 373.855C135.606 373.496 134.65 373.052 133.738 372.528C129.762 370.458 124.252 366.149 124.418 360.513L124.396 360.554Z" fill="#C2A44D"/>
<path fill-rule="evenodd" clip-rule="evenodd" d="M276.794 111.928C277.752 112.239 278.604 112.813 279.251 113.585C281.198 115.822 282.441 120.046 278.009 124.562C279.748 125.182 280.467 125.382 281.985 125.182C280.453 127.006 276.974 130.9 276.766 134.297C276.559 137.072 278.298 137.902 278.298 137.902C278.298 137.902 275.647 140.966 275.524 146.094C276.776 144.682 278.146 143.379 279.62 142.2C282.687 139.756 286.911 136.982 289.77 135.242C289.731 135.971 289.829 136.701 290.059 137.394C290.059 137.394 295.401 133.003 299.89 134.953C301.919 135.865 301.007 138.721 301.007 138.721C301.007 138.721 303.784 137.686 305.731 139.633C307.678 141.58 310.43 146.602 311.842 148.549C312.462 149.461 314.078 151.2 315.733 153.893C317.994 157.662 319.881 161.643 321.369 165.779C321.451 163.625 321.989 160.271 328.122 162.382C334.252 164.537 341.21 169.053 347.051 177.947C352.892 186.841 354.339 196.881 357.28 200.704C360.262 204.391 363.329 210.521 363.536 213.091C363.744 215.66 362.624 223.942 368.754 246.353C370.494 239.395 373.145 223.942 373.145 223.942L374.595 210.314L376.253 168.144L332.218 131.561L297.795 106.581L275.385 108.736L276.791 111.925L276.794 111.928Z" fill="#CAA13E"/>
<path fill-rule="evenodd" clip-rule="evenodd" d="M358.608 174.683C358.608 174.683 357.985 170.587 347.63 163.624C337.273 156.748 329.196 156.748 321.741 150.907C316.023 146.309 310.059 135.744 306.176 132.265C302.405 128.827 301.785 118.885 301.785 118.885L314.502 108.235L333.414 80.8986L349.403 63.2939L357.065 73.9435L367.714 86.4527L373.637 111.556L375.792 148.3L358.588 174.686L358.608 174.683Z" fill="#B59544"/>
<path fill-rule="evenodd" clip-rule="evenodd" d="M371.409 218.727C371.723 213.154 371.035 207.571 369.378 202.242C366.647 193.749 360.681 178.671 357.909 173.024C356.789 166.768 357.62 166.271 358.821 165.566C360.023 164.862 364.539 162.289 367.013 153.264C369.487 144.24 377.163 143.945 377.163 143.945L381.884 140.466L389.052 158.401L395.305 174.599L397.252 186.985L398.702 197.548L395.305 219.876L378.531 235.037L371.407 218.727H371.409Z" fill="#C89D3A"/>
<path fill-rule="evenodd" clip-rule="evenodd" d="M137.322 467.596V467.137C137.671 466.919 137.979 466.642 138.232 466.318C138.521 465.903 138.731 465.406 138.936 465.283C139.351 465.076 141.298 464.464 142.333 464.661C143.368 464.857 146.104 465.985 147.554 465.903C150.536 465.821 154.015 463.541 159.525 464.579C167.81 466.111 169.757 471.744 174.563 474.933C177.84 477.173 181.231 476.176 181.728 476.176H182.845C183.053 476.176 184.585 474.436 185.415 474.521C187.072 474.603 187.236 475.971 188.271 476.053C190.715 476.342 195.439 474.811 197.801 475.433C198.501 475.653 199.138 476.038 199.658 476.557C200.177 477.076 200.563 477.712 200.783 478.412C201.28 479.944 200.865 481.891 199.663 483.011C197.097 485.37 194.653 487.609 194.156 489.564C194.788 490.046 195.395 490.56 195.974 491.104C175.478 485.882 155.759 477.987 137.322 467.621V467.596Z" fill="#CEB052"/>
<path fill-rule="evenodd" clip-rule="evenodd" d="M357.902 384.83C357.902 384.83 364.363 376.215 366.602 371.946C368.839 367.547 359.519 311.842 359.519 311.842L378.243 250.495L377.743 230.528C377.743 230.528 378.655 212.093 380.81 204.098C383.379 208.696 391.375 214.248 393.114 217.189C393.933 211.553 396.716 199.666 396.304 186.99C397.836 189.35 401.522 213.087 401.522 213.087L405.208 229.075L410.014 246.06L415.358 263.998L418.548 276.384L420.369 279.366L421.904 284.584L423.354 290.22L427.537 303.434L429.995 314.286L431.942 333.963C432.365 335.47 432.67 337.007 432.854 338.561C432.936 340.716 432.564 341.958 432.564 342.332C432.564 342.707 433.269 347.054 432.979 350.328C432.564 353.605 432.564 356.169 429.995 358.52C427.425 360.871 425.811 374.923 425.811 374.923L421.213 371.859C421.213 371.859 422.125 367.673 419.97 363.864C417.816 360.054 413.633 359.265 411.27 359.888C408.911 360.385 404.19 361.128 402.655 362.455C401.205 363.779 397.644 367.881 394.37 369.746C390.274 372.203 383.601 372.397 380.04 373.224C376.435 374.044 372.46 376.501 368.273 379.355C364.991 381.48 361.526 383.307 357.919 384.816L357.902 384.83Z" fill="#CCA847"/>
<path fill-rule="evenodd" clip-rule="evenodd" d="M357.902 475.34C357.902 475.34 358.175 475.518 358.702 475.807C388.132 462.019 414.502 442.474 436.253 418.327C436.016 409.944 435.707 401.35 435.369 398.166C434.667 391.413 435.164 384.538 434.956 380.562C434.749 376.586 432.512 360.388 431.477 356.204C430.358 352.021 428.201 349.948 427.873 349.948C427.583 350.033 425.841 357.821 425.841 359.779C425.841 361.737 425.426 366.45 425.426 367.651C425.137 367.566 425.014 366.832 425.014 366.532C424.599 367.566 424.102 369.391 423.894 369.598C423.687 369.806 424.184 367.859 423.894 367.444C423.605 367.029 423.075 367.236 423.19 366.201C423.239 365.587 423.336 364.978 423.479 364.38C423.479 364.38 422.237 366.201 421.328 370.841C420.415 375.439 420.415 375.565 420.085 375.977C419.796 376.477 418.138 378.131 418.053 378.754C417.972 379.871 419.588 380.99 419.711 381.61C419.793 382.648 418.261 387.451 417.764 389.802C417.267 392.153 417.475 396.76 416.945 399.122C416.53 401.277 416.126 402.519 414.708 403.428C415.743 403.636 416.737 403.925 416.737 403.925C416.737 403.925 418.187 410.056 414.501 415.277C413.176 417.098 412.846 417.928 411.437 419.586C408.66 422.649 406.505 426.139 406.298 428.408C406.155 427.739 406.058 427.06 406.008 426.377C406.008 426.377 401.702 431.39 399.878 434.249C397.519 437.936 394.245 437.728 393.325 438.64C392.404 439.552 392.205 441.207 392.505 442.534C391.686 442.739 390.146 443.031 389.108 446.221C388.611 447.875 387.369 449.497 385.422 450.612C383.475 451.726 381.113 452.062 379.912 452.351C380.946 452.64 381.361 452.64 381.858 452.971C381.239 454.006 378.38 455.622 375.19 457.695C372.001 459.642 370.466 462.498 369.68 464.363C368.861 466.103 367.651 467.222 365.704 467.43C366.523 467.927 367.735 469.084 368.355 469.459C367.443 469.666 365.898 469.666 363.137 472.028C360.237 474.431 359.243 475.136 357.916 475.343L357.902 475.34Z" fill="#C39D3C"/>
<path fill-rule="evenodd" clip-rule="evenodd" d="M300.264 494.538C301.85 493.426 303.568 492.515 305.378 491.826C311.839 489.259 318.674 488.762 321.366 487.935C323.936 487.116 325.965 485.985 329.154 485.365C329.069 486.092 328.998 486.774 328.922 487.419C319.519 490.375 309.944 492.752 300.25 494.538H300.264Z" fill="#D2BA6B"/>
<path fill-rule="evenodd" clip-rule="evenodd" d="M419.431 324.6C419.431 324.6 418.106 331.765 415.744 336.282C413.382 340.799 410.829 347.052 410.829 347.052C410.845 345.643 411.011 344.239 411.326 342.866C408.344 344.605 401.094 348.791 399.038 350.654C397.091 352.393 393.817 355.459 392.99 356.909C394.937 351.194 396.966 346.058 397.299 343.696C394.317 345.85 380.396 357.325 373.149 364.905L350.571 383.173C347.966 384.579 345.283 385.835 342.535 386.936C338.644 388.591 334.046 390 330.649 391.327C331.561 388.883 333.008 386.726 335.039 384.656C337.194 382.627 343.655 375.625 344.649 372.368C345.561 368.971 345.768 366.942 344.567 364.083C343.447 364.372 340.88 364.498 339.141 364.995C337.401 365.492 335.536 367.354 335.536 367.354C335.536 367.354 336.861 359.774 339.72 352.609C337.565 352.691 333.879 353.31 333.879 353.31C333.879 353.31 339.015 344.695 347.805 338.69C345.113 339.263 342.479 340.081 339.936 341.132C334.799 343.286 329.166 346.476 324.982 348.215C327.342 344.938 343.911 321.291 353.772 299.251C363.602 277.256 367.275 271.623 369.429 259.818C370.546 253.977 370.249 245.345 370.546 237.615C370.836 229.95 371.789 223.074 371.169 218.476C373.736 221.665 383.348 230.654 383.678 250.747C383.968 270.836 374.484 297.971 364.416 312.591C366.874 313.295 373.242 314.125 379.784 302.76C386.327 291.395 386.248 288.222 388.61 283.498C388.899 285.86 388.814 286.688 388.814 286.688C388.814 286.688 398.345 275.131 402.858 260.591C403.77 266.847 406.463 272.357 402.236 283.831C398.467 294.186 393.539 296.715 393.539 296.715C393.539 296.715 395.982 296.3 399.584 294.145C400.207 295.677 400.084 297.422 401.119 298.039C402.154 298.656 403.563 299.697 403.77 300.691C404.887 299.033 406.627 296.919 407.167 295.347C406.752 298.623 406.463 312.951 407.986 320.242C411.179 319.953 414.45 319.745 416.686 313.986C415.154 319.622 415.155 323.016 416.189 327.822C417.888 326.665 419.42 324.592 419.42 324.592L419.431 324.6Z" fill="#C0993A"/>
<path fill-rule="evenodd" clip-rule="evenodd" d="M311.798 96.2694C311.798 96.2694 308.609 97.5938 303.183 97.5938C298.462 97.5938 299.786 95.7725 292.413 95.7725C281.064 95.7725 241.421 102.326 234.46 102.233C229.944 102.151 249.703 104.18 249.703 104.18L300.201 104.885L310.348 104.065L314.119 96.3923L311.798 96.2694Z" fill="#A88F33"/>
<path fill-rule="evenodd" clip-rule="evenodd" d="M180.857 194.984C180.857 194.984 174.393 199.913 171.66 203.684C168.927 207.455 167.477 209.937 164.369 213.003C165.099 213.031 165.827 212.933 166.524 212.714C166.524 212.714 166.524 213.533 166.027 213.749C166.456 213.701 166.891 213.749 167.299 213.891C167.707 214.033 168.079 214.264 168.386 214.568C167.474 215.065 164.989 217.553 166.936 220.494C168.386 222.73 171.452 222.935 171.452 222.935C171.452 222.935 170.748 224.966 173.689 224.759C180.027 224.469 187.11 221.692 190.381 222.397C193.658 223.216 195.521 223.516 197.839 227.536C200.297 231.512 202.437 232.134 202.437 232.134C202.437 232.134 203.887 228.445 203.557 222.938C204.746 219.969 205.405 216.814 205.504 213.618L203.349 197.753L193.948 185.863L181.769 192.616L180.857 194.976V194.984Z" fill="#E3C571"/>
<path fill-rule="evenodd" clip-rule="evenodd" d="M192.414 192.621C192.414 192.621 193.326 194.775 197.138 194.98C196.723 195.892 196.723 196.018 196.849 196.72C196.931 197.424 197.053 198.459 197.053 198.459C197.473 198.256 197.852 197.978 198.173 197.64C198.381 198.552 197.965 199.999 198.173 201.037C198.301 201.668 198.509 202.28 198.793 202.858C198.853 202.717 198.923 202.579 199 202.446C199.082 202.238 199.82 204.682 201.859 206.542C201.858 206.256 201.928 205.974 202.064 205.723C202.096 206.242 202.267 206.743 202.561 207.173C202.409 207.1 202.269 207.002 202.149 206.883C202.149 206.883 202.354 213.437 203.473 216.826C203.66 216.607 203.827 216.371 203.97 216.121C203.97 215.916 203.888 217.945 203.681 219.398C203.391 220.848 203.599 222.877 203.599 222.877C204.346 222.289 205.166 221.801 206.04 221.427C207.283 220.927 209.317 219.395 210.557 215.998C211.276 214.074 211.83 212.093 212.214 210.075C212.615 210.846 212.891 211.676 213.033 212.533C213.118 213.568 215.065 213.03 215.065 213.03L215.48 208.513L217.938 198.282L220.174 191.944L230.944 175.169L250.402 160.183L267.387 164.077L281.718 144.608L257.03 129.777L233.666 132.221L212.463 161.59L195.481 188.227L192.414 192.618V192.621Z" fill="#D8B65B"/>
<path fill-rule="evenodd" clip-rule="evenodd" d="M314.781 150.122C314.781 150.122 313.331 150.411 309.147 152.579C304.964 154.747 302.064 155.435 300.447 158.625C298.831 161.814 298.708 164.343 298.708 164.343C298.708 164.343 301.567 163.1 303.224 162.685C304.964 162.273 306.911 162.396 306.703 163.1C306.504 163.584 306.227 164.031 305.884 164.425C305.884 164.425 309.161 164.343 309.073 165.959C308.986 167.576 308.454 169.356 307.834 170.143C307.211 170.962 304.644 172.174 304.355 173.127C303.65 175.074 304.644 175.156 304.27 176.729C303.981 178.264 302.615 181.246 298.14 186.464C293.541 191.685 291.586 195.371 291.586 195.371C291.586 195.371 289.35 191.188 288.189 187.584C287.37 187.996 282.971 190.44 282.971 190.44L272.78 154.941L272.985 152.579C272.985 152.579 273.897 151.462 274.105 149.39C272.573 148.893 272.365 148.478 270.333 146.533C268.302 144.589 266.647 142.224 263.253 140.608C262.756 139.696 262.133 138.456 259.648 137.956C257.163 137.457 255.673 137.047 255.673 137.047C255.673 137.047 256.997 136.547 257.62 135.513C256.085 135.72 254.845 136.217 251.489 136.135C248.092 136.05 247.718 135.928 245.856 136.217C243.993 136.506 241.76 137.337 240.927 134.478C240.015 133.773 238.068 134.396 236.41 136.837C234.753 139.278 234.174 141.228 230.985 142.181C230.76 143.587 230.268 144.936 229.535 146.157C228.623 147.691 227.173 149.223 225.226 151.501C222.159 155.105 222.656 161.028 217.768 165.544C212.839 170.058 218.587 153.032 218.587 153.032L226.457 134.191L248.868 112.277L283.665 109.918L287.062 127.94L304.046 133.781L314.775 150.143L314.781 150.122Z" fill="#D3AE4D"/>
<path fill-rule="evenodd" clip-rule="evenodd" d="M320.29 154.097L305.668 133.014L295.436 125.141C295.436 125.141 288.145 111.723 287.648 111.308C287.233 111.018 280.357 110.273 275.966 109.983L276.785 112.012C277.744 112.324 278.595 112.898 279.243 113.67C281.19 115.906 282.432 120.131 278.001 124.647C279.74 125.267 280.458 125.466 281.976 125.267C280.444 127.091 276.966 130.985 276.758 134.382C276.551 137.156 278.29 137.984 278.29 137.984C278.29 137.984 275.639 141.05 275.516 146.176C276.768 144.764 278.138 143.461 279.612 142.282C282.678 139.824 286.903 137.061 289.762 135.321C289.723 136.051 289.821 136.782 290.051 137.476C290.051 137.476 295.392 133.085 299.881 135.032C301.91 135.944 300.998 138.803 300.998 138.803C300.998 138.803 303.775 137.768 305.722 139.715C307.669 141.662 310.444 146.673 311.853 148.622C312.472 149.534 314.089 151.274 315.744 153.964C318.005 157.734 319.893 161.716 321.38 165.853C321.462 164.195 321.795 161.877 324.657 161.877L320.307 154.089L320.29 154.097Z" fill="#CAA13E"/>
<path fill-rule="evenodd" clip-rule="evenodd" d="M101.075 213.997C101.075 213.997 100.04 211.427 101.075 206.417C102.11 201.406 103.727 199.044 104.265 191.671C104.803 184.298 109.609 175.101 109.609 175.101L122.904 169.056L132.309 171.622L135.083 184.216L123.194 190.77C123.194 190.77 122.574 193.544 119.218 195.781C115.862 198.017 111.222 199.757 110.106 202.037C109.438 203.433 108.951 204.908 108.656 206.428C108.656 206.428 105.259 205.723 103.23 207.959C101.075 210.24 101.157 212.268 101.075 214.008V213.997Z" fill="#F4EFC8"/>
<path fill-rule="evenodd" clip-rule="evenodd" d="M127.918 210.641C127.918 210.641 126.799 211.346 125.972 213.099C125.152 211.774 123.194 203.902 123.112 196.818C123.031 189.735 122.607 187.979 124.246 185.538C125.884 183.097 132.309 180.525 131.397 176.128C130.485 171.945 126.673 170.205 121.993 171.407C118.716 172.226 116.278 179.195 112.881 182.674C110.311 185.325 107.247 184.91 106.42 186.36C105.3 188.307 106.335 190.254 106.005 191.496C105.92 191.911 104.885 194.148 103.02 196.84C99.2519 202.266 92.8731 209.931 92.043 216.807C92.3324 212.913 92.1276 212.831 93.1625 208.522L92.54 207.487L96.636 194.066L99.2874 183.007L105.213 164.487L115.65 145.558L125.799 134.207L136.362 134.912L137.604 150.777L143.653 180.563L156.369 196.22L135.988 209.937L127.91 210.641H127.918Z" fill="#EBCC73"/>
<path fill-rule="evenodd" clip-rule="evenodd" d="M134.256 216.269C134.256 216.269 132.516 216.684 131.894 216.354C131.271 216.023 130.654 215.649 130.859 215.234C131.063 214.819 132.183 214.117 132.183 213.784C132.206 213.483 132.111 213.185 131.918 212.953C131.724 212.721 131.448 212.573 131.148 212.542C130.195 212.419 129.906 213.039 129.906 213.039C129.906 213.039 128.994 212.337 128.251 212.219C128.69 212.166 129.132 212.137 129.575 212.135C128.43 211.616 127.216 211.268 125.971 211.1C127.006 210.48 129.037 208.656 130.362 208.656C131.686 208.656 132.516 208.451 132.309 207.747C132.101 207.042 131.066 206.007 129.949 205.592C130.362 205.095 130.654 204.35 129.66 202.315C128.622 200.286 129.037 198.918 129.37 198.424C129.66 197.802 130.695 196.685 131.192 195.98C131.689 195.276 132.104 194.323 132.931 193.826C133.346 193.536 134.671 193.006 135.998 192.501C137.448 192.004 138.649 191.382 139.477 192.004C140.389 192.624 139.974 193.454 139.974 193.454C139.974 193.454 142.833 192.417 145.399 193.744C147.969 194.983 154.225 195.773 154.225 195.773L156.467 200.289L141.637 213.006L135.506 216.072L134.264 216.277L134.256 216.269Z" fill="#E5C66B"/>
<path fill-rule="evenodd" clip-rule="evenodd" d="M154.843 195.481C154.843 195.481 150.244 198.547 149.209 199.664C149.829 199.749 150.864 200.164 150.449 200.784C149.952 201.403 146.97 203.558 145.313 205.59C143.573 207.618 141.916 210.188 141.337 211.43C140.717 212.547 135.993 215.821 134.379 216.234C137.776 216.234 144.611 212.05 147.178 212.05C147.096 213.293 147.882 214.702 149.332 214.825C150.782 214.948 154.965 215.737 160.599 212.258C166.232 208.861 164.37 206.332 166.729 204.678C171.246 201.693 173.067 199.041 175.552 197.387C178.037 195.732 179.323 195.355 179.323 195.355C179.323 195.355 179.405 194.113 180.142 194.238C180.344 194.261 180.536 194.339 180.696 194.463C180.857 194.588 180.981 194.753 181.054 194.943C181.054 194.943 185.363 191.876 190.885 191.049C190.756 190.991 190.653 190.888 190.595 190.759C190.595 190.759 191.007 190.552 191.092 190.344C191.092 190.344 191.382 189.929 191.589 190.137C191.797 190.344 192.086 191.876 192.501 192.499C193.413 192.084 195.153 188.19 195.153 188.19L199.339 176.219V165.282L196.062 165.905L171.486 176.341L156.571 191.794L154.832 195.481H154.843Z" fill="#E6BD62"/>
<path fill-rule="evenodd" clip-rule="evenodd" d="M225.594 141.836C226.923 141.514 228.198 140.996 229.376 140.301C228.879 141.629 228.879 143.079 226.724 146.227C224.57 149.375 224.488 149.831 222.749 153.103C221.009 156.5 220.802 161.388 219.144 163.539C219.887 163.178 220.684 162.941 221.503 162.838C221.503 162.838 219.849 164.288 219.144 165.82C218.44 167.351 217.197 170.541 214.133 172.491C211.069 174.44 207.173 175.68 202.989 180.278C198.803 184.792 194.497 190.51 192.34 192.566C193.459 190.619 194.991 186.725 195.406 184.159C195.821 181.592 195.322 178.523 196.026 175.128C196.731 171.734 196.731 169.287 200.122 163.362C203.514 157.436 209.319 136.85 209.319 136.85L221.828 132.874L225.599 141.822L225.594 141.836Z" fill="#B6933F"/>
<path fill-rule="evenodd" clip-rule="evenodd" d="M216.563 134.256C216.563 134.256 212.795 139.682 211.76 144.488C210.725 149.294 211.675 148.879 211.055 151.241C210.685 152.681 210.685 154.192 211.055 155.632C212.36 153.529 214.147 151.768 216.268 150.493C219.832 148.341 222.732 146.806 224.46 144.985C226.2 143.038 227.65 139.848 231.418 137.404C229.886 137.197 227.732 136.492 227.322 136.585C228.857 134.846 233.452 132.194 238.092 129.005C242.69 125.728 242.401 124.406 249.858 121.135C247.414 121.55 246.254 120.928 244.222 121.135C245.041 119.396 247.908 118.566 250.776 115.709C253.643 112.853 248.954 108.626 248.954 108.626L227.109 121.84L216.547 134.267L216.563 134.256Z" fill="#C49937"/>
<path fill-rule="evenodd" clip-rule="evenodd" d="M157.287 124.396L157.784 120.42L164.04 110.396L170.585 92.7909V68.7228L170.088 54.8046L171.123 45.6897L171.91 42.7924L172.74 41.6729L178.081 44.4472L185.457 54.4715L186.161 73.8183L178.993 104.347L158.53 126.676L157.287 124.396Z" fill="#DFC068"/>
<path fill-rule="evenodd" clip-rule="evenodd" d="M173.567 40.5529C173.567 40.5529 170.291 40.6375 169.591 54.2663C168.892 67.895 168.554 75.0603 168.057 81.8132C167.56 88.5662 166.402 92.6649 165.82 96.6435C165.239 100.622 164.908 106.045 163.046 109.36C162.227 110.892 160.476 115.698 156.375 119.303C151.777 123.278 144.906 126.056 143.866 126.263C142.042 126.675 132.804 127.587 129.036 129.66C127.711 130.364 125.431 131.192 122.905 133.554C117.892 138.068 111.223 146.145 106.417 155.88C99.0447 170.421 91.6719 211.471 91.6719 211.471L93.3294 208.696C93.3294 208.696 93.5369 205.01 97.2233 198.546C100.828 192.086 99.7929 184.836 104.804 172.45C106.751 167.728 109.195 161.598 112.176 156.377C116.901 147.884 122.616 140.594 128.375 136.618C137.776 130.157 148.134 128.748 148.134 128.748L159.278 121.375C159.278 121.375 161.225 117.607 163.794 113.298C167.396 107.252 171.986 100.499 172.988 90.6824C174.523 76.1416 170.834 66.6143 171.041 57.9991C171.249 49.3838 171.331 43.046 173.073 41.5113C174.815 39.9767 173.57 40.5583 173.57 40.5583L173.567 40.5529Z" fill="#A88F33"/>
<path fill-rule="evenodd" clip-rule="evenodd" d="M173.566 105.59C173.566 105.59 178.481 93.4928 180.731 82.764C181.146 80.6095 181.974 78.4578 182.181 76.7183C183.216 66.5685 183.506 62.3851 182.181 56.8336C181.146 52.7376 177.17 49.0458 175.098 46.184C173.069 43.1994 172.116 42.088 172.531 41.46C172.946 40.8319 174.56 39.8052 176.133 39.9281C177.805 39.9767 179.449 40.3649 180.966 41.0691C182.484 41.7732 183.842 42.7786 184.958 44.0241C188.148 47.7105 190.674 60.2224 190.674 60.2224L193.331 76.732L200.083 97.526L173.571 105.606L173.566 105.59Z" fill="#C99E3D"/>
<path fill-rule="evenodd" clip-rule="evenodd" d="M219.752 92.9986C219.752 92.9986 218.84 93.411 217.186 92.9986C217.256 93.6749 217.139 94.3575 216.846 94.9713C216.554 95.5851 216.098 96.1063 215.528 96.4775C213.789 95.773 197.506 97.182 197.506 97.182C197.506 97.182 189.925 95.8549 187.563 85.8306C185.909 79.1596 188.806 69.9655 187.853 63.917C186.403 55.0096 184.374 53.2674 184.166 50.4958C183.959 47.7242 183.751 47.0169 183.751 45.2775C182.839 45.07 182.301 44.7805 181.392 44.7805C181.184 43.9613 181.597 43.2459 180.688 41.7959C181.184 42.0034 184.581 42.4185 188.557 46.1868C191.834 49.2533 191.834 50.3702 192.328 50.9928C192.948 51.6126 197.962 55.908 200.116 60.1897C202.271 64.4714 206.454 78.1247 207.407 80.3611C207.697 81.2731 208.319 82.1852 209.865 84.255C212.268 87.2397 215.787 92.174 219.763 92.9932L219.752 92.9986Z" fill="#B58634"/>
<path fill-rule="evenodd" clip-rule="evenodd" d="M192.914 51.2002C195.423 55.2539 197.678 59.46 199.664 63.794C202.108 69.3018 203.558 73.8183 206.625 77.5047C204.967 72.7015 202.026 63.2561 200.287 59.9001C198.34 56.3502 194.364 52.5273 192.914 51.2029V51.2002Z" fill="#A88F33"/>
<path fill-rule="evenodd" clip-rule="evenodd" d="M164.745 119.303C164.745 119.303 160.561 120.337 152.773 124.439C150.204 125.763 147.763 126.88 145.401 127.918C139.265 130.692 132.684 133.256 127.463 134.671C127.878 135.168 128.083 135.373 128.083 135.373C128.083 135.373 128.083 137.404 129.202 138.562C128.582 139.185 120.295 144.818 122.742 163.665C124.396 163.045 126.343 162.215 126.633 162.215C127.132 162.3 127.255 163.665 127.875 163.665C128.495 163.665 130.527 162.846 132.681 160.06C132.599 161.18 131.357 172.447 138.025 180.027C139.268 178.577 142.416 173.771 142.416 173.771L142.498 172.239C142.498 172.239 142.787 166.895 144.53 162.007C146.272 157.12 149.666 153.515 149.666 153.515L167.391 128.205L164.739 119.3L164.745 119.303Z" fill="#E6C367"/>
<path fill-rule="evenodd" clip-rule="evenodd" d="M148.174 156.467C147.363 157.04 146.469 157.487 145.523 157.791C145.234 156.756 144.819 153.193 147.262 149.714C150.121 145.528 156.375 140.102 158.114 135.787C159.234 133.01 158.737 126.053 168.679 117.145C178.621 108.238 182.513 105.174 182.513 105.174L198.585 97.0967L218.344 104.885L208.528 143.36L200.906 161.382L170.596 155.667L148.172 156.467H148.174Z" fill="#DCBA5A"/>
<path fill-rule="evenodd" clip-rule="evenodd" d="M159.744 146.02L163.515 141.298V137.942C163.515 137.942 167.699 136.823 172.212 132.224C176.726 127.626 182.982 118.803 188.493 119.341C194.003 119.963 194.541 131.312 194.749 134.504C194.956 137.696 195.661 144.941 196.777 148.838C198.02 152.731 183.356 167.477 183.356 167.477L173.397 175.057L159.744 146.02Z" fill="#E9CE77"/>
<path fill-rule="evenodd" clip-rule="evenodd" d="M171.412 185.33C171.412 185.33 174.479 180.524 172.231 179.489C173.556 176.508 176 173.359 176 173.359C176 173.359 177.739 169.053 183.372 163.75C189.006 158.447 192.487 154.924 193.399 151.364C193.962 149.043 194.268 146.668 194.311 144.28C194.921 144.778 195.572 145.221 196.258 145.605C197.17 146.02 201.477 149.581 200.857 156.749C200.237 163.917 197.58 166.898 197.58 166.898C197.58 166.898 195.013 169.465 193.192 170.792C191.242 172.117 190.54 173.649 187.266 173.774C187.603 173.507 187.981 173.296 188.386 173.152C188.386 173.152 184.989 172.739 183.165 174.394C181.341 176.049 177.463 181.147 175.516 182.682C173.569 183.924 171.42 185.333 171.42 185.333L171.412 185.33Z" fill="#CDAE50"/>
<path fill-rule="evenodd" clip-rule="evenodd" d="M309.148 104.759C304.254 102.976 299.11 101.97 293.905 101.777C285.205 101.488 272.488 101.985 260.02 102.067C246.599 102.149 234.42 97.4684 217.52 96.641C214.746 94.9835 207.69 87.7336 185.664 103.102C186.988 103.02 201.655 99.7049 206.748 106.086C211.884 112.424 210.434 123.194 209.732 125.761C208.405 131.479 204.096 139.805 202.359 145.646C200.623 151.486 201.032 154.556 199.79 158.652C198.547 162.748 195.814 164.782 197.428 169.503C199.582 168.179 200.705 168.179 204.304 160.102C207.903 152.024 207.163 146.265 213.129 139.431C218.97 132.555 228.694 123.15 232.391 120.788C236.089 118.426 265.446 103.184 296.185 117.725C303.599 116.938 309.15 104.757 309.15 104.757L309.148 104.759Z" fill="#D2A83E"/>
<path fill-rule="evenodd" clip-rule="evenodd" d="M198.046 99.1237C198.016 98.8124 197.947 98.506 197.842 98.2116C197.554 97.6058 197.177 97.047 196.722 96.5541C196.722 96.5541 189.431 95.2297 185.745 95.6421C179.281 96.3466 173.44 104.342 170.707 108.443C167.973 112.545 164.577 118.88 160.89 122.154C160.93 121.835 160.857 121.512 160.683 121.242C160.683 121.242 160.89 121.532 160.478 121.947C160.065 122.362 160.063 122.566 160.27 122.766L160.893 123.386C161.098 123.386 166.816 120.816 174.604 113.555C182.888 105.975 189.226 102.086 192.541 100.754C194.309 100.003 196.157 99.4556 198.049 99.1237H198.046Z" fill="#C29637"/>
<path fill-rule="evenodd" clip-rule="evenodd" d="M339.472 67.9775C339.472 67.9775 338.145 69.6323 336.487 71.4564C332.801 75.3503 327.995 79.7385 323.893 84.255C320.002 88.564 315.611 91.92 310.679 97.5534C305.748 103.187 300.03 109.44 298.583 111.264C297.258 113.088 296.223 116.07 296.223 117.602C295.519 117.105 294.691 116.567 294.691 116.567C295.04 117.217 295.456 117.829 295.934 118.391C296.969 119.841 298.583 121.668 299.413 122.782C300.431 124.2 301.162 125.804 301.565 127.503C302.061 127.585 305.251 128.208 309.23 121.662C313.208 115.117 318.424 107.952 318.424 107.952L326.708 95.6474L331.93 85.2108L338.483 73.529L339.48 67.9775H339.472Z" fill="#AC8132"/>
<path fill-rule="evenodd" clip-rule="evenodd" d="M347.963 59.6104C347.963 59.6104 342.95 63.7064 341.003 66.164C339.056 68.6216 334.449 75.0714 334.449 75.0714L336.107 74.8639L344.517 67.4091L347.794 61.5682L347.961 59.6213L347.963 59.6104Z" fill="#A88F33"/>
<path fill-rule="evenodd" clip-rule="evenodd" d="M346.428 388.806C346.428 388.806 346.346 385.409 348.252 383.38C350.199 381.348 355.128 378.367 359.934 367.182C364.74 355.997 365.275 353.471 365.275 353.471C365.275 353.471 356.66 360.844 351.349 362.583C352.591 360.014 353.296 358.192 353.918 356.865C353.214 356.245 350.232 355.541 349.942 355.211C351.597 353.553 352.509 349.493 355.865 346.8C360.174 343.523 368.044 337.893 374.161 332.874C380.277 327.855 392.303 316.181 393.838 312.784C394.75 314.109 394.955 314.936 394.955 314.936C394.955 314.936 388.909 322.808 385.761 327.819C382.984 332.128 383.191 334.572 383.191 334.572L388.909 332.115C388.909 332.115 390.564 338.245 383.068 347.567C386.345 346.325 387.667 347.07 389.529 346.033C386.462 347.982 382.238 350.634 378.262 357.922C374.368 365.213 369.065 373.705 360.12 379.006C351.42 384.598 346.406 388.781 346.406 388.781L346.428 388.806Z" fill="#A67A2E"/>
<path fill-rule="evenodd" clip-rule="evenodd" d="M323.977 109.071C323.977 109.071 320.58 116.152 320.083 121.662C320.001 122.989 319.668 124.024 319.668 125.556C319.586 130.485 319.957 135.995 318.848 138.562C318.433 137.527 318.226 136.823 317.811 136.41C317.191 138.15 316.071 143.576 315.159 145.605C314.747 144.28 313.835 139.682 313.919 134.256C314.004 128.83 314.124 127.792 314.124 126.676C313.919 128.33 312.8 130.57 312.385 131.894C311.765 130.777 311.06 129.327 310.23 128.126C309.733 128.945 309.114 130.155 308.576 130.777C308.491 130.28 308.286 128.953 308.161 127.091C308.079 124.936 307.953 122.162 308.079 121.58C308.283 120.463 310.026 116.072 313.712 112.053C318.103 107.247 322.619 98.0118 323.944 95.1528C325.268 92.2938 330.902 80.4072 330.902 80.4072H335.21L328.955 94.6559C328.955 94.6559 325.186 102.444 323.239 105.305C321.292 108.167 317.191 116.367 315.367 119.557C316.691 117.817 317.811 116.905 319.138 115.248C320.421 114.087 323.982 109.077 323.982 109.077L323.977 109.071Z" fill="#8C6228"/>
<path fill-rule="evenodd" clip-rule="evenodd" d="M348.046 59.0693C347.342 61.2357 346.23 63.2471 344.769 64.9949C342.2 68.0614 336.689 72.1601 334 75.4315C331.542 78.6209 326.627 87.3208 328.86 97.6345C329.68 95.3981 331.222 90.9662 335.324 85.9527C339.425 80.9392 343.816 75.183 345.974 70.7102C348.125 66.1936 348.415 62.6329 348.415 62.6329L349.234 61.5979L348.737 59.2359L348.032 59.0693H348.046Z" fill="#CBA94C"/>
<path fill-rule="evenodd" clip-rule="evenodd" d="M431.928 333.835C431.928 333.835 430.27 329.321 429.773 325.22C429.276 321.118 430.593 320.305 429.069 315.611C428.157 312.752 426.502 313.153 426.087 312.752C425.672 312.35 425.383 308.03 425.464 305.668C425.546 303.306 425.383 300.243 424.967 298.915C424.348 298.418 423.933 298.003 423.021 294.94C421.986 291.873 421.489 290.341 420.992 289.432C420.495 288.523 419.042 287.692 419.042 286.78C419.042 284.956 420.699 284.006 420.699 283.504C420.618 282.469 419.375 283.299 419.042 283.007C418.63 282.51 420.08 279.528 419.542 279.113C419.334 278.908 417.884 280.647 417.51 280.15C417.095 279.651 416.598 274.722 415.853 271.45C415.151 268.261 414.403 265.943 414.321 264.99C414.239 264.078 408.603 248.005 407.237 244.111C406.137 240.821 405.211 237.475 404.463 234.087C404.048 232.14 403.758 228.161 403.551 228.576C403.343 228.991 403.469 231.02 403.136 230.938C402.846 230.854 401.811 223.773 401.481 222.653C401.192 221.534 399.449 217.738 399.023 214.991C398.608 212.214 397.699 204.964 397.076 200.035C396.454 195.106 396.164 193.078 396.164 191.843C396.266 188.824 396.1 185.802 395.667 182.813C394.848 177.592 393.21 171.254 391.773 167.57C388.999 160.61 381.624 142.798 380.305 138.366C380.305 137.246 381.755 137.869 381.755 137.869C381.755 137.869 385.356 146.899 388.008 153.857C390.577 160.817 393.021 166.948 393.644 167.57C394.141 168.19 398.035 175.025 399.774 186.21C401.514 197.395 402.134 207.708 403.171 214.584C403.668 217.861 404.083 221.337 405.118 224.816C406.235 228.587 407.975 232.481 410.255 238.445C412.202 243.458 413.652 247.642 414.438 251.246C415.35 255.845 415.35 259.324 415.888 261.604C416.388 263.551 417.13 267.442 418.873 273.072C420.615 278.703 423.179 285.956 424.918 290.469C428.318 299.5 429.834 307.039 430.347 311.059C430.8 315.201 432.335 329.534 431.92 333.841L431.928 333.835Z" fill="#A88F33"/>
<path fill-rule="evenodd" clip-rule="evenodd" d="M348.253 58.5727L348.045 59.0697C348.045 59.0697 348.665 59.2772 348.542 60.1073C348.551 61.2431 348.482 62.3781 348.335 63.5043C348.13 64.9543 347.715 66.0711 347.633 66.9831C347.633 68.9301 347.922 71.1665 345.175 76.718C344.356 78.2499 343.851 79.5742 343.436 80.4863C342.401 82.7227 342.193 83.0558 341.281 84.0908C342.731 83.2716 347.952 79.9948 350.601 80.4863C348.78 81.5212 346.003 83.5528 344.263 86.2043C344.678 86.2862 346.418 86.6194 349.178 86.2043C353.777 85.4998 358.913 83.8423 363.427 84.1727C368.359 84.4621 366.412 78.2499 366.412 78.2499L360.721 65.7407L349.951 58.1631L348.253 58.5754V58.5727Z" fill="#BE9C44"/>
<path fill-rule="evenodd" clip-rule="evenodd" d="M376.337 152.276C376.337 152.276 371.531 147.47 369.584 130.977C367.637 114.407 368.052 90.0166 368.052 90.0166L364.158 80.4893C364.158 80.4893 363.339 74.1514 361.299 71.7921C359.259 69.4328 355.253 65.4542 353.429 63.5072C351.605 61.5603 349.535 58.9088 348.293 58.4937C348.913 57.4588 351.69 51.6179 362.334 51.536C372.978 51.4541 376.26 57.3769 377.372 59.5314C378.483 61.6859 383.502 71.0002 385.365 88.7495C387.104 106.477 387.189 107.804 386.899 113.934C386.692 117.331 385.572 125.201 383.622 133.609C381.842 140.736 379.895 148.69 376.331 152.292L376.337 152.276Z" fill="#A17C34"/>
<path fill-rule="evenodd" clip-rule="evenodd" d="M361.268 166.401C362.869 166.517 364.469 166.156 365.866 165.364C367.398 165.282 372.949 165.986 377.215 160.561C377.504 161.8 378.252 165.159 376.303 168.141C377.34 167.103 378.872 166.691 379.08 166.401C379.162 167.933 380.612 172.655 374.481 184.129C376.136 182.308 378.083 182.389 379.822 182.182C379.907 184.336 381.065 191.584 378.001 195.48C375.972 198.132 372.657 197.302 372.657 197.302C372.706 196.723 372.706 196.141 372.657 195.562C372.575 194.443 372.16 193.326 372.452 192.58C370.851 191.849 369.392 190.838 368.143 189.596C364.539 186.199 359.859 180.402 359.528 176.093C359.113 171.287 363.422 170.252 363.422 170.252C363.061 169.929 362.753 169.551 362.51 169.132C362.303 168.43 362.095 167.311 361.268 166.401Z" fill="#8C6228"/>
<path fill-rule="evenodd" clip-rule="evenodd" d="M329.319 114.29C329.319 114.29 329.111 114 327.994 115.324C328.202 114 328.409 112.755 328.491 111.553C329.02 110.441 329.704 109.409 330.523 108.49C329.9 109.729 329.485 110.849 329.485 110.849C329.485 110.849 331.02 107.99 333.256 106.25C334.788 105.008 336.735 104.429 337.562 103.269C338.474 102.026 338.267 101.819 338.474 101.611C338.474 101.611 340.506 100.287 343.614 96.3901C344.026 95.8931 344.648 95.3551 345.064 94.8582C345.765 94.5687 347.423 93.8232 349.37 92.8265C351.401 91.7097 353.679 90.1778 355.088 89.5497C357.862 88.3073 360.806 88.4329 362.171 86.4832C363.206 86.1937 364.323 83.0862 364.118 80.4375C365.65 81.0574 373.52 85.9453 376.215 96.6331C378.162 104.213 374.68 115.895 373.23 121.531C371.78 127.167 371.576 131.348 369.544 133.915C366.974 137.315 358.692 142.107 356.661 144.48C354.921 146.427 349.703 151.356 349.908 154.916C350.115 157.568 353.387 159.012 354.094 159.515C354.801 160.017 354.796 160.634 356.123 160.334C357.45 160.034 357.944 159.422 358.485 159.422C359.105 159.504 359.105 159.63 359.394 159.63C359.604 159.623 359.813 159.595 360.017 159.545C360.017 159.545 359.809 163.316 350.986 164.46C350.364 164.545 349.744 164.75 348.955 164.875C349.992 164.378 350.612 164.378 351.732 162.846C350.489 162.639 346.926 162.431 346.014 162.142C346.303 161.645 347.256 160.318 348.043 159.698C348.747 159.078 347.961 158.879 347.341 159.201C346.274 159.927 345.25 160.715 344.274 161.56C343.239 162.472 342.327 163.715 340.67 164.837C340.173 163.179 340.255 160.031 342.205 157.754C341.705 157.836 340.752 159.286 339.843 158.996C339.678 157.485 339.776 155.957 340.132 154.48C340.629 152.614 343.321 149.343 343.321 149.343L356.328 126.102L359.102 108.498L329.319 114.284V114.29Z" fill="#92723A"/>
<path fill-rule="evenodd" clip-rule="evenodd" d="M328.618 115.283C328.618 115.283 327.913 115.78 329.322 116.733C329.114 117.022 328.618 118.057 327.995 118.762C327.293 119.581 326.545 120.089 326.255 120.793C325.636 122.243 325.139 123.237 325.139 123.86C325.139 124.483 324.931 128.458 323.192 131.025C322.569 131.937 321.865 133.469 321.368 134.504C320.333 136.326 319.421 137.781 319.213 138.6C318.801 140.05 318.511 144.026 318.511 144.026C318.511 144.026 319.423 142.906 319.754 142.494C319.254 143.529 318.716 144.646 317.93 145.476C318.427 145.061 319.877 144.026 322.321 141.872C325.718 139.015 331.02 134.209 337.484 130.403C335.534 131.107 333.879 131.107 332.555 131.315C333.59 130.28 342.91 119.344 347.798 118.309C348.094 117.932 348.242 117.46 348.213 116.981L344.027 116.569L335.534 118.391L334.295 111.837L328.618 115.275V115.283Z" fill="#B18E3E"/>
<path fill-rule="evenodd" clip-rule="evenodd" d="M342.122 152.565C342.122 152.565 341.003 153.682 339.968 156.459C339.171 155.627 338.488 154.693 337.936 153.682C336.404 151.115 334.045 147.841 328.534 149.706C328.452 147.967 328.327 147.055 328.534 145.812C329.446 145.607 332.221 143.371 334.995 140.097C336.945 137.86 338.766 135.291 340.009 132.019C340.828 131.397 342.245 130.362 344.105 129.16C346.756 127.339 349.945 124.851 350.442 122.077C349.2 122.574 346.549 123.817 342.57 123.612C344.105 122.907 346.464 122.162 346.174 119.095C346.797 118.68 347.294 118.391 347.294 118.391C346.827 118.235 346.336 118.165 345.844 118.183C345.759 117.894 345.637 117.481 344.932 117.686C344.227 117.891 344.113 117.894 344.02 118.183C343.73 118.268 342.777 118.183 342.073 118.683C341.368 119.183 339.422 120.835 338.676 121.124C338.965 120.627 339.378 119.884 339.378 119.884C339.378 119.884 337.349 120.089 335.899 120.704C333.247 121.616 330.184 123.273 327.076 124.887C327.366 124.39 327.491 124.068 327.696 123.975C327.901 123.882 328.401 123.77 328.401 123.685C328.401 123.601 328.196 122.866 328.319 122.569C329.248 120.6 330.344 118.716 331.595 116.935C333.045 114.986 333.335 112.211 333.335 112.211L339.673 109.022L357.485 104.926L369.044 105.63L367.594 113.626L360.767 127.585L354.926 140.302L348.255 148.092L342.125 152.565H342.122Z" fill="#543E26"/>
<path fill-rule="evenodd" clip-rule="evenodd" d="M370.995 117.965C370.995 117.965 364.034 126.58 362.087 127.907C363.33 125.256 370.995 109.473 373.769 105.082C373.149 104.585 372.319 104.585 374.266 96.8896C372.611 100.781 372.03 102.812 370.664 103.847C369.299 104.882 369.13 104.552 368.207 104.552C368.381 104.237 368.453 103.875 368.412 103.517C368.412 103.517 362.571 102.812 358.581 102.812C354.592 102.812 346.695 104.967 342.301 106.706C338.822 108.156 336.875 108.156 335.633 109.066C334.39 110.101 333.686 111.22 333.063 111.51C332.566 111.799 330.207 112.545 329.666 113.331C329.169 114.15 328.342 115.07 328.342 115.278C328.342 115.485 328.134 115.778 328.757 115.567C328.962 115.485 330.496 114.655 332.236 113.62C334.595 112.296 337.454 110.764 339.527 109.852C345.449 107.49 347.314 107.905 349.963 107.408C352.738 106.911 356.716 105.751 359.365 105.751C362.016 105.669 367.03 105.751 368.19 105.958C367.693 106.373 367.278 106.87 367.486 108.61C367.486 109.107 367.071 109.645 366.667 110.846C365.427 114.243 363.065 119.876 361.752 122.735C359.93 126.627 357.86 129.901 356.836 131.93C355.812 133.958 353.559 139.302 351.329 142.161C349.098 145.02 347.932 146.76 347.233 147.382C346.533 148.005 341.515 151.689 341.889 153.016C342.801 152.726 348.56 150.558 352.74 145.85C356.921 141.143 357.754 138.27 361.025 135.701C364.296 133.131 366.866 128.825 368.398 125.264C369.681 121.949 369.392 120.914 371.006 117.973L370.995 117.965Z" fill="#806031"/>
<path fill-rule="evenodd" clip-rule="evenodd" d="M220.998 182.267C220.998 182.267 220.086 186.035 218.013 187.9C215.984 189.724 212.38 191.297 211.968 194.364C211.471 197.427 215.572 198.962 215.572 198.962C215.572 198.962 213.333 202.648 213.333 205.423C213.333 208.282 213.251 208.82 213.54 211.553C213.212 211.764 212.933 212.044 212.721 212.372C212.721 212.372 212.926 215.024 214.958 216.679C216.989 218.333 218.726 219.33 219.761 218.915C219.919 219.253 220.057 219.599 220.176 219.953C220.176 219.953 221.711 216.059 222.745 212.662C223.78 209.183 224.692 209.677 225.105 204.997C225.517 200.316 230.02 192.28 230.02 192.28L233.092 185.412L228.081 181.519L220.998 182.264V182.267Z" fill="#B6903C"/>
<path fill-rule="evenodd" clip-rule="evenodd" d="M230.319 189.017C229.285 190.077 228.332 191.213 227.465 192.414C226.141 194.238 225.106 195.892 223.159 196.6C221.212 197.307 219.969 197.301 220.092 199.251C220.215 201.201 222.039 202.025 223.074 203.019C224.194 204.054 225.106 205.794 224.609 207.744C225.229 207.454 226.348 207.121 227.383 204.885C228.418 202.648 235.657 189.019 235.657 189.019H230.319V189.017Z" fill="#685026"/>
<path fill-rule="evenodd" clip-rule="evenodd" d="M258.867 157.576C258.867 157.576 259.487 155.921 258.867 154.72C258.244 153.478 254.476 153.062 252.611 151.653C250.664 150.203 248.302 149.196 246.355 149.832C246.644 149.128 247.805 147.593 246.852 147.263C245.94 146.973 242.545 148.505 241.633 149.209C240.721 149.914 238.649 150.741 238.236 151.241C237.824 151.741 237.117 152.691 236.702 152.276C236.287 151.987 236.082 151.241 235.377 151.653C234.673 152.066 231.281 154.843 230.656 156.459C230.031 158.076 228.625 161.68 224.4 165.779C220.176 169.878 218.352 172.532 219.594 174.064C220.837 175.596 221.418 174.479 221.626 175.803C221.785 177.104 221.715 178.422 221.418 179.697C220.921 181.852 220.094 183.881 221.211 184.296C224.07 185.208 226.847 183.477 227.467 184.006C228.709 185.123 226.762 189.143 229.703 189.929C232.688 190.748 235.629 189.225 235.629 189.225L246.48 183.384L256.92 177.876L262.261 167.311L259.396 158.488L258.85 157.576H258.867Z" fill="#D4B968"/>
<path fill-rule="evenodd" clip-rule="evenodd" d="M248.628 182.805C248.628 182.805 246.804 180.03 249.043 177.584C251.282 175.137 254.469 174.105 255.712 172.573C255.475 172.281 255.158 172.066 254.799 171.953C255.624 170.477 256.882 169.29 258.404 168.553C257.784 167.933 256.954 167.436 256.045 167.436C254.013 167.436 252.768 168.679 250.906 168.679C249.084 168.679 248.877 167.767 248.877 167.767C248.877 167.767 251.943 167.477 251.651 166.109C251.362 164.659 250.832 164.659 250.832 164.659C250.832 164.659 256.755 162.202 257.79 160.891C258.824 159.58 258.702 158.032 258.909 157.412C259.611 157.412 263.712 155.258 265.37 156.17C267.027 157.082 265.867 159.567 265.867 159.567C265.867 159.567 270.883 155.796 273.439 152.098C275.675 152.306 276.716 150.566 278.354 150.566C280.386 150.566 283.575 153.341 284.195 159.264C284.61 162.661 285.23 164.607 284.61 170.615C284.321 174.012 284.403 181.265 285.429 184.864C286.131 187.723 287.789 187.433 287.789 187.433C287.534 188.304 287.03 189.082 286.339 189.67C285.219 190.704 285.096 193.441 285.219 194.476C285.384 195.232 285.592 195.979 285.842 196.712C285.842 196.712 284.517 198.244 284.184 199.281C283.895 200.316 282.529 201.021 281.533 201.021C280.536 201.021 281.036 200.936 279.711 201.021C278.387 201.106 277.972 201.31 277.142 201.021C276.312 200.731 275.692 200.398 276.025 197.744C276.314 195.093 265.793 188.921 265.793 188.921L248.59 182.791L248.628 182.805Z" fill="#CCA849"/>
<path fill-rule="evenodd" clip-rule="evenodd" d="M228.867 208.984C228.867 208.984 232.635 213.997 248.129 213.997C255.502 213.997 258.072 213.293 259.598 212.878C261.256 212.462 267.468 210.021 273.724 202.646C279.357 195.977 278.115 193.244 278.115 193.244L274.838 192.747L264.188 194.197L232.676 207.618L228.854 208.984H228.867Z" fill="#585136"/>
<path fill-rule="evenodd" clip-rule="evenodd" d="M240.425 210.226C240.425 210.226 227.004 213.211 227.004 204.718C227.004 196.433 235.289 187.734 237.361 186.202C239.516 184.667 244.652 182.925 244.652 182.925H257.039L259.398 189.181L258.363 202.684L240.425 210.223V210.226Z" fill="#252211"/>
<path fill-rule="evenodd" clip-rule="evenodd" d="M252.81 185.456C252.81 185.456 250.243 183.094 244.402 186.275C238.561 189.456 233.837 196.105 233.548 202.143C233.258 207.484 237.939 211.463 245.23 211.67C250.655 211.875 253.93 211.255 255.587 210.851C255.172 210.354 253.018 207.662 253.018 207.662L252.813 185.459L252.81 185.456Z" fill="#C3B378"/>
<path fill-rule="evenodd" clip-rule="evenodd" d="M250.284 186.778C250.284 186.778 249.665 186.281 247.827 187.275C246.295 188.094 244.058 190.259 242.319 191.791C241.199 192.703 240.495 193.115 239.861 193.82C237.292 196.886 235.137 201.9 236.383 204.385C237.628 206.87 241.726 209.729 252.166 207.782L250.254 186.78L250.284 186.778Z" fill="#E6D89C"/>
<path fill-rule="evenodd" clip-rule="evenodd" d="M246.887 191.916C246.887 191.916 245.23 194.486 245.23 198.587C245.23 202.771 247.592 209.439 256.292 209.936C262.96 210.351 267.433 200.327 272.28 196.433C275.966 193.451 278.203 193.366 278.203 193.366C278.203 193.366 274.434 189.27 264.369 183.965C254.427 178.621 243.283 177.916 237.234 186.119C240.093 185.912 249.331 183.55 249.331 183.55L253.848 185L246.887 191.919V191.916Z" fill="#252211"/>
<path fill-rule="evenodd" clip-rule="evenodd" d="M259.894 197.342C259.605 196.723 259.397 195.892 260.599 195.688C261.8 195.483 262.338 195.603 262.753 196.507C263.168 197.411 263.572 198.164 262.958 198.538C262.338 198.869 260.722 198.538 259.892 197.337L259.894 197.342ZM257.947 191.502C257.947 191.502 257.532 191.791 257.74 191.212C257.822 190.51 258.362 189.265 259.687 189.557C261.011 189.849 260.724 191.297 260.506 191.712C260.287 192.127 259.182 192.829 258.351 192.531C258.246 192.504 258.149 192.453 258.067 192.381C257.985 192.31 257.922 192.22 257.881 192.119C257.841 192.018 257.825 191.909 257.834 191.801C257.844 191.693 257.879 191.588 257.936 191.496L257.947 191.502Z" fill="#6F674D"/>
<path fill-rule="evenodd" clip-rule="evenodd" d="M145.818 194.151C145.818 194.151 149.095 196.608 152.902 196.513C156.67 196.428 161.517 192.537 163.753 190.049C165.078 188.599 166.211 187.067 167.44 185.866C168.477 184.831 169.179 184.334 169.676 183.63C170.381 182.81 171.126 181.27 171.5 180.771C170.588 181.475 169.264 182.72 167.896 183.548C166.571 184.367 163.712 185.907 162.552 186.322C161.435 186.737 149.835 192.876 149.835 192.876L145.818 194.151Z" fill="#AC924C"/>
<path fill-rule="evenodd" clip-rule="evenodd" d="M150.826 163.542C150.826 163.542 152.648 162.3 156.17 161.511C159.567 160.691 166.402 160.061 166.402 160.061L172.035 162.518L174.272 171.011L170.176 179.836L164.957 183.113L159.032 173.586L150.84 163.559L150.826 163.542Z" fill="#9F8E57"/>
<path fill-rule="evenodd" clip-rule="evenodd" d="M143.454 171.123L141.504 172.579C141.504 172.579 142.004 171.666 142.416 168.892C142.828 166.118 144.985 159.365 148.134 155.471C151.282 151.577 151.201 151.785 151.201 151.785C150.911 151.732 150.613 151.741 150.327 151.812C150.041 151.883 149.774 152.014 149.543 152.197C149.958 151.279 152.61 148.003 155.261 146.364C157.912 144.726 158.947 144.21 161.722 145.545C164.496 146.88 165.201 147.574 167.232 147.492C169.264 147.41 171.001 145.255 171.001 145.255C171.001 145.255 171.416 146.58 169.884 149.646C168.352 152.713 162.303 158.966 162.303 158.966L149.71 167.581L143.454 171.131V171.123Z" fill="#EAC970"/>
<path fill-rule="evenodd" clip-rule="evenodd" d="M152.771 162.508C152.771 162.508 161.886 163.75 164.66 161.183C164.742 161.473 165.075 161.473 165.075 161.68C165.053 161.837 164.98 161.982 164.868 162.093C165.169 162.044 165.474 162.017 165.78 162.011C166.144 162.119 166.52 162.189 166.899 162.218C167.205 162.212 167.51 162.183 167.811 162.134C167.782 162.339 167.712 162.537 167.605 162.716C167.499 162.894 167.357 163.049 167.189 163.171C167.604 163.171 168.008 163.253 168.008 163.584C168.008 163.914 168.09 164.911 167.593 165.118C167.181 165.232 166.743 165.202 166.35 165.034C166.383 165.818 166.596 166.584 166.973 167.273C167.792 168.805 169.54 170.55 171.888 170.047C171.888 170.047 173.128 173.029 167.91 179.656C167.208 180.568 166.46 181.811 165.55 182.846C165.191 183.629 164.916 184.448 164.731 185.29C164.731 185.29 173.557 181.893 176.082 174.146C178.652 166.358 179.149 158.696 178.652 151.53C178.567 149.499 178.237 148.052 177.74 147.014C176.497 144.444 173.016 144.859 171.61 146.309C169.578 148.341 166.181 153.393 161.46 156.872C156.654 160.35 156.449 160.968 152.76 162.508H152.771Z" fill="#D7BC6B"/>
<path fill-rule="evenodd" clip-rule="evenodd" d="M141.836 173.692C141.836 173.692 140.097 174.727 139.185 178.607C138.273 182.583 140.004 187.43 141.006 188.962C142.008 190.494 144.283 194.68 149.002 194.887C150.169 194.881 151.324 194.642 152.398 194.183C154.046 193.428 155.591 192.467 156.997 191.324C159.029 189.792 160.683 188.468 160.476 188.342C159.979 188.135 147.967 178.192 147.967 178.192L143.45 173.151L141.834 173.698L141.836 173.692Z" fill="#585136"/>
<path fill-rule="evenodd" clip-rule="evenodd" d="M153.19 190.178C153.19 190.178 155.634 189.973 157.084 189.061C158.534 188.149 148.592 178.291 148.592 178.291L149.296 188.941L153.19 190.178Z" fill="#453A25"/>
<path fill-rule="evenodd" clip-rule="evenodd" d="M142.623 172.944C142.623 172.944 141.381 175.306 141.381 175.928C141.173 177.957 141.796 184.336 142.293 186.365C142.79 188.52 145.482 191.791 148.964 191.791C151.116 191.791 154.1 190.467 154.1 190.136C154.1 189.721 151.034 189.317 150.206 187.774C149.709 186.955 149.502 184.918 149.387 182.859C149.305 181.535 149.305 180.085 149.802 179.582C150.922 178.34 151.127 174.776 151.127 174.776L155.102 167.39H149.873L143.617 171.284L142.623 172.944Z" fill="#84754B"/>
<path fill-rule="evenodd" clip-rule="evenodd" d="M141.09 175.224C141.09 175.224 145.186 169.799 148.878 168.553C152.57 167.308 154.222 168.056 154.222 168.056L152.067 173.567L149.001 176.964L149.208 178.703C149.208 178.703 148.708 183.302 151.775 186.491C154.841 189.681 157.119 189.558 158.446 189.558C159.773 189.558 163.582 188.438 165.529 183.84C167.269 179.533 168.719 174.009 165.24 168.472C161.84 162.961 155.835 162.748 154.675 162.748C153.514 162.748 144.402 163.204 141.09 175.216V175.224Z" fill="#252211"/>
<path fill-rule="evenodd" clip-rule="evenodd" d="M246.265 193.656C244.733 192.952 246.183 188.646 247.715 187.319C249.247 185.991 251.194 184.462 254.594 184.252C255.833 184.17 257.035 184.956 256.83 185.787C256.541 187.319 254.386 189.473 252.439 191.005C249.747 193.118 248.005 194.443 246.265 193.656Z" fill="#F7F7E7"/>
<path fill-rule="evenodd" clip-rule="evenodd" d="M163.417 170.169C164.537 170.087 165.987 170.988 166.276 172.201C166.566 173.525 165.572 176.177 163.417 176.177C161.678 176.177 160.766 174.022 160.766 173.402C160.785 172.893 160.928 172.395 161.181 171.952C161.263 171.827 161.47 170.377 163.417 170.169Z" fill="#F8F6DE"/>
<path fill-rule="evenodd" clip-rule="evenodd" d="M147.263 171.123C147.263 171.123 144.404 172.447 143.08 175.219C142.133 177.266 141.847 179.556 142.26 181.773C142.468 182.808 143.503 185.374 144.207 186.286C144.912 187.198 145.865 187.821 146.569 187.736C147.274 187.652 148.721 185.789 148.721 184.673C148.721 183.556 148.806 178.832 150.171 176.262C151.373 173.695 147.271 171.126 147.271 171.126L147.263 171.123Z" fill="#D4C38B"/>
<path fill-rule="evenodd" clip-rule="evenodd" d="M147.677 170.915C147.18 171.205 146.353 171.62 146.557 172.158C146.765 172.655 148.504 172.977 149.127 174.189C149.831 175.432 149.831 176.756 149.624 177.379C150.165 177.122 150.656 176.77 151.074 176.341C151.986 175.306 153.103 173.9 154.056 173.9C154.678 173.9 155.298 174.189 155.88 174.189C156.792 174.189 157.701 173.9 157.827 172.947C158.032 171.705 156.087 170.585 154.968 170.793C155.175 169.973 155.465 168.764 154.553 167.933C153.641 167.103 150.784 168.556 150.162 168.971C149.539 169.386 147.677 170.918 147.677 170.918V170.915Z" fill="#E2D59D"/>
<path fill-rule="evenodd" clip-rule="evenodd" d="M213.499 257.947L219.629 256.137L221.369 257.379C221.369 257.379 222.609 260.031 224.558 260.361C223.936 261.685 222.319 262.819 222.404 263.758C222.488 264.697 223.316 265.416 223.316 265.416C223.316 265.416 217.805 274.528 228.66 283.711C226.09 284.746 222.819 286.169 221.079 286.988C222.319 287.277 224.971 287.807 226.09 288.812C227.21 289.817 227.21 290.136 228.245 290.759C229.28 291.381 229.9 292.209 229.695 292.58C228.99 292.165 226.628 290.925 226.216 292.083C225.804 293.241 215.984 292.788 215.984 292.788L199.414 295.977C199.414 295.977 200.034 294.32 198.295 292.788C196.266 290.966 193.781 292.87 191.13 290.841C187.651 288.189 187.525 285.123 186.408 283.965C187.525 283.26 189.805 282.226 195.231 281.507C195.023 281.092 194.319 279.85 194.734 278.733C195.231 277.283 197.301 276.371 196.681 274.637C197.593 274.429 198.005 274.429 200.285 271.57C202.44 268.711 203.764 268.092 205.422 267.884C207.079 267.677 208.073 267.884 211.14 265.025C213.292 262.996 212.59 261.257 212.59 261.257C212.59 261.257 213.996 260.801 213.502 257.942L213.499 257.947Z" fill="#CBAC5A"/>
<path fill-rule="evenodd" clip-rule="evenodd" d="M195.398 258.867C195.48 258.452 195.813 258.244 198.05 258.452C200.286 258.659 214.453 257.127 218.306 256.92C222.2 256.631 235.91 256.835 242.581 258.244C249.252 259.653 256.003 261.311 259.274 262.138C262.551 263.05 263.583 263.378 263.457 263.793C263.375 264.208 262.638 264.612 262.215 264.498C261.803 264.416 250.948 261.101 247.595 260.402C244.242 259.703 232.639 257.832 226.296 257.944C220.373 258.029 218.011 257.862 213 258.441C207.987 259.064 199.702 259.891 197.217 259.561C194.759 259.271 195.267 259.271 195.393 258.856L195.398 258.867Z" fill="#D6BC6F"/>
<path fill-rule="evenodd" clip-rule="evenodd" d="M228.742 291.335C228.742 291.335 237.235 295.933 240.301 301.566C242.538 305.75 238.977 307.822 238.977 307.822C238.977 307.822 243.783 307.822 243.16 310.474C242.871 312.129 234.875 316.601 229.531 318.963C224.106 321.326 224.313 321.203 221.662 321.615C219.092 322.03 212.05 320.796 210.6 322.857C209.15 324.919 209.781 327.044 210.185 327.374C210.6 327.663 213.956 328.078 213.956 328.078C213.956 328.078 213.251 330.025 206.293 330.233C199.336 330.44 197.594 330.935 197.178 331.683C196.763 332.385 198.503 331.972 201.695 332.502C204.884 332.999 209.357 333.321 209.357 333.321C209.357 333.321 207.907 334.564 204.139 335.558C199.83 336.675 193.077 337.712 191.048 338.955C192.083 339.659 193.618 340.694 194.325 340.776C192.586 341.191 190.139 342.103 189.726 342.434C190.346 342.849 191.176 343.346 191.176 343.346C191.176 343.346 187.695 347.529 185.666 348.567C183.637 349.604 171.955 355.027 167.936 353.992C157.911 351.341 156.669 340.364 154.225 339.536C150.539 338.294 148.799 340.776 145.525 339.037C146.975 338.002 147.764 337.382 149.296 336.677C147.639 335.858 139.064 330.421 139.064 330.421C138.168 328.467 137.173 326.56 136.083 324.706C134.425 321.847 131.987 318.035 130.157 314.679C126.181 307.306 125.974 303.909 122.369 299.726C122.992 298.907 125.143 299.021 125.143 299.021L155.345 308.964L208.896 310.515L222.822 290.633L228.745 291.337L228.742 291.335Z" fill="#DFC677"/>
<path fill-rule="evenodd" clip-rule="evenodd" d="M149.416 321.656C149.739 322.016 150.116 322.324 150.533 322.569C151.571 323.273 153.102 324.103 154.137 325.343C154.552 324.723 155.587 323.603 157.414 325.343C159.241 327.082 161.51 325.843 162.922 326.255C164.372 326.755 164.454 326.959 164.454 326.959C164.454 326.959 165.273 326.255 167.105 325.509C168.225 325.094 169.549 324.805 170.999 324.393C172.324 324.103 173.774 323.688 174.77 323.688C175.682 324.308 178.954 327.784 192.085 322.653C204.472 317.847 207.328 317.309 209.401 318.052C209.608 317.555 209.816 316.602 213.005 316.728C213.005 315.403 210.354 310.887 210.354 310.887L195.731 305.876H187.733L163.749 310.267L150.459 317.85L149.424 321.673L149.416 321.656Z" fill="#C4A859"/>
<path fill-rule="evenodd" clip-rule="evenodd" d="M141.422 313.248C141.422 313.248 141.711 315.485 145.026 317.847C148.303 320.206 149.333 321.615 149.333 321.615C149.333 321.615 149.955 320.796 150.452 319.96C150.949 319.048 151.364 318.013 152.192 317.724C153.849 317.02 157.617 318.344 158.448 318.136C159.152 317.932 158.945 316.482 159.69 316.482C161.429 316.397 162.546 317.598 163.169 317.598C163.791 317.598 165.321 317.516 165.528 317.186C165.736 316.856 165.818 313.415 168.18 311.758C170.749 309.936 173.898 310.723 174.733 311.138C174.733 311.758 174.815 313.292 176.473 313.374C178.13 313.456 178.294 313.167 179.75 313.664C181.205 314.161 182.939 313.582 183.725 316.023C184.43 315.818 186.087 315.611 185.672 313.248C186.492 312.629 187.207 312.214 188.949 309.77C189.364 309.15 190.066 308.445 190.607 307.533C192.057 307.533 193.796 307.244 196.114 309.273C195.41 309.77 194.995 310.092 194.79 310.597C195.396 311.197 195.95 311.849 196.445 312.544C197.067 313.363 197.482 314.368 198.269 314.576C200.008 315.073 202.867 314.368 206.057 314.576C209.123 314.783 211.69 315.9 212.81 316.604C213.225 316.4 213.225 316.315 214.26 316.523C215.295 316.73 216.081 316.812 214.964 315.488C215.584 315.777 216.289 316.4 216.911 315.777C217.534 315.154 218.028 314.245 219.767 314.038C221.507 313.83 222.129 314.12 222.834 312.298C223.746 310.062 220.598 310.062 220.598 310.062C220.598 310.062 222.048 308.735 223.664 306.995C225.611 305.174 227.847 302.812 228.385 299.912C229.297 294.568 224.079 293.866 224.079 293.866L198.769 301.654L167.825 300.119L141.438 313.251L141.422 313.248Z" fill="#927D49"/>
<path fill-rule="evenodd" clip-rule="evenodd" d="M118.681 240.135C118.681 240.135 117.862 241.17 117.357 243.614C116.851 246.057 117.067 245.768 116.652 247.507C116.237 249.247 111.139 266.562 113.05 272.403C114.962 278.244 118.271 280.398 120.341 285.12C120.756 286.155 121.16 286.777 121.376 287.689C122.081 290.753 121.461 293.115 122.288 296.182C122.578 297.216 123.326 298.418 124.443 299.66C126.9 302.227 130.906 304.671 132.635 306.411C135.076 308.98 138.557 314.201 142.989 314.695C145.351 314.985 148.707 313.991 151.482 312.336C153.939 310.802 155.458 308.65 158.035 307.421C159.857 306.509 161.804 306.179 163.543 305.763C167.147 305.059 170.422 304.944 172.369 305.348C175.35 305.971 182.393 308.126 186.295 308.126C189.344 308.076 192.376 307.659 195.325 306.883C201.248 305.144 208.413 302.159 213.137 300.835C215.912 300.015 218.148 299.8 220.428 299.303C224.322 298.391 227.594 297.148 229.459 294.786C228.216 293.336 226.684 291.1 218.397 291.182C208.995 291.389 198.141 296.608 192.797 297.438C187.453 298.268 185.134 298.97 179.168 296.815C173.319 294.639 173.125 293.2 173.125 293.2C173.125 293.2 166.984 288.904 164.414 277.954C161.845 267.004 164.414 259.025 171.085 251.442C172.825 249.495 172.409 247.756 172.409 247.756C172.409 247.756 176.8 241.833 175.599 236.287C174.275 230.777 165.782 231.896 165.782 231.896L118.684 240.135H118.681Z" fill="#6E6342"/>
<path fill-rule="evenodd" clip-rule="evenodd" d="M125.764 258.569C125.399 259.256 125.227 260.029 125.267 260.806C125.349 261.923 125.682 263.373 129.036 266.647C131.895 269.503 131.272 272.692 131.272 272.692C131.272 272.692 132.711 272.982 136.616 271.155C139.683 269.705 140.712 272.275 140.712 272.275C141.605 271.806 142.572 271.498 143.571 271.363C144.476 271.279 145.352 271 146.138 270.543C146.138 270.543 149.742 274.23 152.891 275.969C155.75 277.504 157.407 278.539 158.816 277.504C160.141 276.592 160.141 274.727 160.056 273.899C159.728 273.136 159.311 272.413 158.816 271.745C157.904 270.42 156.454 268.886 156.359 267.649C156.151 264.793 158.513 261.393 158.014 260.565C157.514 259.738 155.654 259.531 151.056 261.188C146.294 262.761 125.745 258.578 125.745 258.578L125.764 258.569Z" fill="#39331F"/>
<path fill-rule="evenodd" clip-rule="evenodd" d="M136.616 277.086C136.616 277.086 134.257 274.85 135.084 263.996C136.086 263.981 137.086 264.078 138.066 264.285C138.066 264.285 139.352 272.695 136.616 277.086Z" fill="#292311"/>
<path fill-rule="evenodd" clip-rule="evenodd" d="M119.799 231.85C120.128 231.607 120.434 231.332 120.711 231.031C119.892 232.563 116.11 238.693 119.177 248.346C122.243 257.955 129.946 265.121 139.433 265.454C148.919 265.787 153.905 261.145 159.607 254.187C161.843 251.413 164.413 247.931 166.69 245.572C170.087 241.883 172.739 240.848 172.739 237.287C172.739 229.996 165.281 226.722 154.304 223.451C143.327 220.179 133.425 220.583 128.289 222.823C123.278 225.264 121.124 227.833 119.796 231.853L119.799 231.85Z" fill="#252211"/>
<path fill-rule="evenodd" clip-rule="evenodd" d="M155.049 280.357L155.868 279.942C155.868 279.942 156.073 276.665 157.4 276.753C158.725 276.96 159.347 278.702 159.222 279.322C159.14 279.942 158.809 280.98 157.482 280.854C155.743 280.895 155.041 280.357 155.041 280.357H155.049Z" fill="#3F3824"/>
<path fill-rule="evenodd" clip-rule="evenodd" d="M151.363 266.44C151.363 266.44 152.182 266.15 153.185 267.144C154.004 267.144 157.576 266.729 158.695 267.434C159.815 268.138 160.145 268.758 160.145 268.758C160.145 268.758 155.962 269.67 153.682 268.758C151.363 267.972 151.363 266.44 151.363 266.44Z" fill="#2D2815"/>
<path fill-rule="evenodd" clip-rule="evenodd" d="M169.798 267.059C169.798 266.852 167.561 265.32 165.199 264.82C164.784 264.738 164.7 265.028 164.38 265.028C164.173 264.946 164.091 264.323 164.091 264.323L162.747 265.03C162.747 265.03 162.54 265.32 163.244 265.85C163.864 266.347 164.902 266.762 165.191 267.589C165.481 268.417 165.481 268.706 165.606 268.832C165.688 268.913 167.138 268.832 167.843 268.417C168.547 268.001 169.874 267.324 169.79 267.051L169.798 267.059Z" fill="#82764F"/>
<path fill-rule="evenodd" clip-rule="evenodd" d="M148.879 275.47C148.879 275.47 149.291 272.613 152.068 272.488C154.925 272.28 155.465 275.054 155.465 275.054L153.808 276.712C153.808 276.671 152.565 274.932 148.893 275.47H148.879Z" fill="#2D2816"/>
<path fill-rule="evenodd" clip-rule="evenodd" d="M166.899 263.166C166.899 263.166 165.364 264.823 161.97 265.32C161.68 264.905 161.058 264.078 161.97 262.753C162.882 261.429 163.917 261.014 164.952 261.426C165.408 261.5 165.834 261.703 166.179 262.012C166.524 262.32 166.774 262.72 166.899 263.166Z" fill="#574F35"/>
<path fill-rule="evenodd" clip-rule="evenodd" d="M173.151 265.197C173.236 264.782 172.946 264.7 173.151 264.492C173.356 264.285 174.478 263.873 174.686 264.077C174.768 264.162 174.686 264.492 174.686 264.897C174.686 265.301 174.686 265.716 174.478 266.013C174.189 266.429 173.361 266.636 172.946 266.513C172.531 266.39 172.449 265.809 172.449 265.694C172.654 265.612 173.151 265.405 173.151 265.197ZM180.223 260.724C180.223 260.517 180.928 260.102 181.343 260.102C181.963 260.102 181.963 260.599 182.048 260.724C182.252 260.806 182.252 260.639 182.46 261.014C182.667 261.388 182.96 262.049 182.749 262.464C182.539 262.879 181.714 263.165 181.51 263.083C181.22 262.876 180.308 261.014 180.223 260.724Z" fill="#82764F"/>
<path fill-rule="evenodd" clip-rule="evenodd" d="M165.986 266.15C165.986 266.15 166.898 266.355 168.141 267.393C167.726 267.682 167.103 268.013 167.103 268.013C167.103 268.013 167.021 267.06 165.986 266.147V266.15Z" fill="#6E6342"/>
<path fill-rule="evenodd" clip-rule="evenodd" d="M163.957 257.035C163.749 256.83 164.576 256.333 165.073 256.415C165.57 256.497 165.778 256.83 166.316 256.912C166.854 256.994 166.938 256.705 167.135 256.497C167.332 256.289 168.047 256.415 168.17 256.497C168.247 256.588 168.316 256.685 168.378 256.786C168.386 256.629 168.427 256.475 168.498 256.334C168.569 256.193 168.668 256.068 168.79 255.967C168.949 255.85 169.132 255.771 169.326 255.735C169.52 255.699 169.719 255.708 169.909 255.76C169.991 256.049 170.406 257.084 170.324 257.292C170.243 257.499 169 257.791 168.79 257.581C168.997 258.081 169.909 259.116 170.032 259.32C170.155 259.525 169.12 260.025 168.708 259.943C168.129 259.902 164.566 257.83 163.946 257.043L163.957 257.035ZM169.382 250.159C169.306 249.95 169.159 249.775 168.967 249.662C168.678 249.58 167.725 249.662 167.725 250.159C167.725 250.656 168.544 253.436 169.464 254.883C170.502 256.333 171.204 257.532 171.908 257.865C172.129 257.966 172.381 257.979 172.611 257.902C172.842 257.825 173.034 257.663 173.151 257.45C173.233 257.242 173.44 255.711 173.358 252.106C173.276 248.502 173.151 245.023 172.943 244.815C172.736 244.608 171.908 244.61 171.619 245.023C171.329 245.435 169.464 249.539 169.38 250.159H169.382Z" fill="#585136"/>
<path fill-rule="evenodd" clip-rule="evenodd" d="M165.696 271.368C165.696 271.368 164.246 270.456 162.837 271.079C161.513 271.701 161.595 274.145 161.595 274.145C161.893 274.262 162.215 274.304 162.533 274.268C162.85 274.232 163.155 274.118 163.419 273.938C164.331 273.318 165.489 272.283 165.696 271.371V271.368Z" fill="#574F35"/>
<path fill-rule="evenodd" clip-rule="evenodd" d="M168.431 274.642C168.349 273.823 167.611 273.823 167.611 273.399C167.662 273.197 167.779 273.018 167.944 272.89C168.109 272.762 168.312 272.693 168.521 272.695C168.936 272.695 169.34 273.192 169.848 273.514C170.345 273.803 171.09 274.333 171.172 274.964C171.254 275.595 170.353 277.323 169.351 277.323C168.349 277.323 168.646 275.458 168.439 274.631L168.431 274.642ZM176.426 273.522C176.426 273.522 174.768 274.019 174.891 273.522C175.014 273.025 175.391 272.902 175.929 272.902C176.202 272.616 176.57 272.439 176.964 272.403C177.189 272.392 177.41 272.466 177.584 272.61C177.584 272.61 178.703 272.113 179.034 272.403C179.364 272.692 179.118 272.692 179.323 273.025C179.584 273.395 179.755 273.82 179.823 274.268C179.823 274.598 178.58 275.303 177.584 275.18C176.426 274.931 176.631 273.73 176.426 273.522ZM186.076 271.657C186.076 271.657 186.573 271.947 186.161 272.28C185.871 272.569 184.421 273.099 183.176 273.192C181.934 273.192 180.817 273.397 180.817 272.984C180.817 272.572 181.852 271.742 182.472 271.534C182.596 271.379 182.754 271.253 182.934 271.167C183.113 271.081 183.31 271.037 183.509 271.037C184.006 271.037 185.95 270.83 186.491 270.748C186.988 270.663 187.403 270.953 187.111 271.368C186.988 271.657 186.076 271.657 186.076 271.657ZM188.935 258.867C188.935 258.867 188.313 260.191 187.611 260.191C186.906 260.109 186.906 259.902 186.906 259.694C186.906 259.405 187.611 258.659 187.526 258.452C187.321 258.452 186.822 258.452 186.906 257.955C186.906 257.54 187.611 257.043 188.231 257.135C188.699 256.751 189.282 256.533 189.888 256.516C190.593 256.516 191.212 256.72 191.212 257.135C191.212 257.551 190.393 258.46 190.093 258.67C189.763 259.001 189.347 259.216 188.935 258.875V258.867ZM179.49 283.347C179.49 283.347 178.671 283.432 178.671 283.844C178.671 284.052 178.875 284.052 179.168 283.929C179.336 283.919 179.503 283.891 179.664 283.844C179.746 283.929 179.746 284.341 180.369 284.341C180.88 284.272 181.373 284.103 181.819 283.844C182.316 283.639 182.731 283.429 182.731 283.025C182.523 282.32 182.108 281.987 181.489 281.987C181.171 281.967 180.854 282.039 180.577 282.195C180.577 282.195 180.369 281.78 179.664 282.195C178.96 282.61 179.042 282.61 179.249 282.817C179.621 283.148 179.498 283.364 179.498 283.364L179.49 283.347ZM174.809 287.656C174.809 287.449 175.844 287.034 176.134 287.159C176.423 287.241 177.251 288.814 177.251 288.981C177.251 289.188 176.216 289.685 175.801 289.685C175.386 289.685 174.684 288.981 174.684 288.866C174.684 288.784 175.181 288.661 175.181 288.576C175.304 288.372 174.809 287.872 174.809 287.664V287.656ZM171.533 281.608C171.74 281.526 171.74 281.318 172.03 281.111C172.12 281.05 172.223 281.012 172.331 280.998C172.439 280.983 172.549 280.994 172.652 281.029C172.725 280.899 172.826 280.786 172.948 280.7C173.07 280.613 173.21 280.555 173.357 280.529C173.854 280.447 174.269 280.529 174.176 280.737C174.176 281.359 174.591 281.772 174.591 282.269C174.591 282.766 174.301 283.388 173.267 283.803C172.232 284.093 170.823 284.093 170.615 284.011C170.408 283.929 170.2 283.099 170.408 282.684C170.615 282.269 171.194 281.815 171.527 281.608H171.533Z" fill="#82764F"/>
<path fill-rule="evenodd" clip-rule="evenodd" d="M172.85 281.89C172.85 281.89 172.146 282.305 172.146 282.512C172.083 282.713 172.056 282.922 172.064 283.132C172.064 283.255 172.976 283.05 173.099 282.925C173.14 282.843 172.85 282.105 172.85 281.89Z" fill="#6E6342"/>
<path fill-rule="evenodd" clip-rule="evenodd" d="M166.692 279.942C167.104 280.027 167.809 279.942 168.346 280.15C168.762 280.357 169.051 280.772 168.636 281.269C168.221 281.766 167.817 282.512 166.897 282.386C165.862 282.304 164.868 281.766 164.868 281.351C164.85 281.089 164.885 280.825 164.971 280.576C165.056 280.327 165.19 280.098 165.365 279.901C165.78 279.571 165.984 279.778 166.689 279.942H166.692Z" fill="#585136"/>
<path fill-rule="evenodd" clip-rule="evenodd" d="M166.194 280.357C166.194 280.357 164.87 281.392 164.537 281.892C164.122 282.389 162.093 284.956 161.473 285.494C161.679 285.131 161.914 284.785 162.175 284.459C161.356 284.983 160.741 285.772 160.435 286.695C159.938 288.23 163.212 289.057 165.364 289.68C167.516 290.303 168.349 290.499 168.349 290.499C167.557 289.309 166.877 288.047 166.317 286.731C165.498 284.784 165.075 284.576 165.613 283.664C166.028 282.752 166.65 282.132 166.65 281.428C166.402 280.772 166.194 280.357 166.194 280.357Z" fill="#574F35"/>
<path fill-rule="evenodd" clip-rule="evenodd" d="M118.97 283.632C119.272 283.687 119.581 283.687 119.882 283.632C120.502 283.547 126.966 281.174 133.719 281.6C138.774 281.905 143.785 282.729 148.672 284.058C157.164 286.294 167.726 290.726 174.561 293.254C176.383 293.956 178.166 295.201 179.476 295.696C184.697 297.727 184.902 297.727 187.969 298.265C191.573 298.762 195.26 297.561 199.113 296.733C203.834 295.696 211.911 295.199 218.995 294.164C221.285 293.846 223.544 293.334 225.748 292.632C225.748 292.632 220.114 298.265 206.608 300.294C201.149 301.123 195.602 301.193 190.123 300.502C185.814 300.087 182.958 299.464 180.804 298.844C178.36 298.14 173.346 296.275 167.175 294.748C162.866 293.629 158.06 292.801 152.552 291.766C138.964 289.279 124.219 286.422 118.965 283.648L118.97 283.632Z" fill="#252211"/>
<path fill-rule="evenodd" clip-rule="evenodd" d="M103.724 258.031C100.447 260.806 96.9709 263.457 93.5767 266.024L83.3449 273.886C79.866 276.452 76.4691 279.104 72.9875 281.673C69.5059 284.243 66.0298 286.684 62.3379 289.046C65.6147 286.272 69.0908 283.702 72.5697 281.176C76.0486 278.651 79.6558 276.174 83.0118 273.612L93.2436 265.74C96.7634 263.173 100.16 260.522 103.724 258.037V258.031ZM85.6223 287.028C85.6223 287.028 89.3087 283.962 93.9071 279.655C99.6224 274.314 106.624 267.477 108.86 266.237L85.6196 287.031L85.6223 287.028Z" fill="#CFB66C"/>
<path fill-rule="evenodd" clip-rule="evenodd" d="M85.623 287.026C87.4471 285.205 89.3941 283.424 91.3411 281.682L94.323 279.115C95.235 278.296 96.2727 277.376 97.182 276.464C99.0033 274.643 100.786 272.693 102.608 270.831C103.511 269.894 104.465 269.009 105.467 268.179C105.968 267.736 106.524 267.36 107.122 267.06C107.621 266.77 108.159 266.24 108.861 266.147C108.449 266.77 107.952 267.06 107.537 267.597C107.04 268.013 106.625 268.509 106.212 268.922C105.3 269.834 104.265 270.661 103.353 271.491C101.406 273.149 99.3774 274.768 97.4304 276.502C95.4835 278.236 93.6621 280.107 91.7124 281.846C89.6016 283.629 87.6547 285.369 85.623 287.034V287.026ZM110.396 270.456C110.396 270.456 96.8925 283.673 94.1154 285.825L110.396 270.456Z" fill="#CFB66C"/>
<path fill-rule="evenodd" clip-rule="evenodd" d="M110.395 270.456C109.181 271.862 107.878 273.19 106.496 274.432L102.4 278.326C101.076 279.65 99.8305 280.977 98.4242 282.302C96.9742 283.544 95.6499 284.759 94.1152 285.906L98.0911 282.012C99.4182 280.688 100.868 279.571 102.277 278.244L106.253 274.35C107.618 272.985 108.945 271.658 110.395 270.456ZM111.015 277.621C109.771 281.095 108.304 284.485 106.624 287.771C103.146 294.732 97.9272 303.429 95.6471 307.863L111.015 277.621Z" fill="#CFB66C"/>
<path fill-rule="evenodd" clip-rule="evenodd" d="M111.015 277.624C111.015 279.156 110.6 280.483 110.103 281.807C109.618 283.133 109.066 284.433 108.448 285.701C107.825 286.944 107.121 288.271 106.416 289.472C105.712 290.674 104.884 291.914 104.262 293.159L100.078 300.532C98.6284 302.989 97.2194 305.46 95.6875 307.822C96.7224 305.171 98.1314 302.686 99.4586 300.242C100.909 297.785 102.233 295.327 103.555 292.785C104.2 291.518 104.78 290.219 105.294 288.893C105.914 287.566 106.534 286.324 107.033 285.122C107.653 283.798 108.15 282.553 108.773 281.354C109.475 280.068 110.056 278.826 111.009 277.624H111.015Z" fill="#CFB66C"/>
<path fill-rule="evenodd" clip-rule="evenodd" d="M125.764 311.591C125.764 311.591 121.668 317.017 122.078 323.892C123.194 320.291 124.603 314.78 125.764 311.591ZM129.658 317.03C129.658 317.03 128.208 331.776 127.006 339.026C128.705 330.645 129.035 331.35 129.658 317.03ZM156.79 339.897C156.79 339.897 150.66 357.919 150.534 362.927C151.861 357.777 154.428 347.256 156.79 339.883V339.897Z" fill="#DEC270"/>
<path fill-rule="evenodd" clip-rule="evenodd" d="M171.123 310.477C171.123 310.477 181.065 326.88 188.523 340.88C186.505 333.835 181.863 320.913 171.123 310.477Z" fill="#CBAF59"/>
<path fill-rule="evenodd" clip-rule="evenodd" d="M197.842 334.624C203.301 344.273 208.223 354.216 212.587 364.407C211.76 357.365 209.521 345.312 197.842 334.624Z" fill="#E3C677"/>
<path fill-rule="evenodd" clip-rule="evenodd" d="M276.382 358.809C278.037 357.774 281.311 352.138 284.17 350.732C287.027 349.282 289.181 348.993 291.751 346.134C294.317 343.149 295.027 341.328 300.655 338.968C308.528 335.569 303.113 331.178 303.113 331.178C303.98 330.326 304.907 329.537 305.887 328.818C307.919 327.286 310.278 325.421 310.073 322.147C309.784 316.64 308.749 308.644 304.233 304.005C308.623 303.093 317.031 302.473 322.255 301.149C328.301 299.614 331.078 297.459 331.078 297.459C331.078 297.459 327.599 291.537 333.232 285.573C338.866 279.609 343.464 276.045 346.861 269.374C342.967 268.877 337.031 266.808 321.881 272.564C322.699 272.949 323.488 273.391 324.243 273.888C324.243 273.888 314.923 276.458 311.526 279.317C305.601 284.328 304.855 288.429 298.435 291.496C292.016 294.562 285.552 293.732 280.211 296.217C274.87 298.702 274.08 300.815 272.131 301.727C272.546 302.224 272.049 303.052 272.835 303.756C272.338 304.461 269.438 309.182 266.497 309.182C266.787 310.302 269.272 311.129 269.272 311.129C269.272 311.129 267.45 312.456 262.811 312.787C265.17 315.244 267.409 317.923 273.581 321.817C273.084 322.852 271.011 324.386 271.841 326.333C272.753 328.28 275.118 330.932 284.558 333.086C279.752 333.291 274.121 334.411 266.536 333.376C258.955 332.464 257.713 331.926 253.033 333.086C253.529 333.583 254.854 333.583 256.014 334.908C254.772 334.99 246.984 333.996 244.333 337.477C241.558 341.079 240.357 347.005 240.564 350.98C239.114 351.685 237.705 352.927 238.41 355.497C239.114 358.067 242.801 358.894 245.163 360.508C247.522 362.247 247.73 362.867 249.969 362.455C252.328 361.958 255.807 359.598 257.838 359.598C259.87 359.598 261.317 361.13 261.317 361.13C261.317 361.13 266.828 358.479 267.366 358.976C267.863 359.473 267.448 362.662 267.986 363.159C268.532 363.533 274.739 359.847 276.396 358.809H276.382Z" fill="#ECD592"/>
<path fill-rule="evenodd" clip-rule="evenodd" d="M396.801 193.036C370.912 126.178 306.91 113.792 306.91 113.792H124.313L125.018 181.892H161.382V333.96H124.311V401.937H301.856C344.645 401.937 378.945 358.938 378.945 358.938C433.873 280.98 396.798 193.036 396.798 193.036H396.801ZM302.809 313.122C302.809 313.122 288.882 333.215 273.73 333.215H243.419L242.701 182.059H281.6C281.6 182.059 299.622 185.827 312.213 221.492C312.213 221.492 328.906 272.556 302.809 313.122Z" fill="white" fill-opacity="0.8"/>
</svg>
