<svg width="512" height="512" viewBox="0 0 512 512" fill="none" xmlns="http://www.w3.org/2000/svg">
<path d="M255.999 484.292C382.082 484.292 484.292 382.082 484.292 255.999C484.292 129.917 382.082 27.707 255.999 27.707C129.917 27.707 27.707 129.917 27.707 255.999C27.707 382.082 129.917 484.292 255.999 484.292Z" fill="white"/>
<path d="M256 0C205.368 0 155.873 15.0141 113.774 43.1438C71.6752 71.2734 38.863 111.255 19.487 158.033C0.11092 204.811 -4.95873 256.284 4.91908 305.943C14.7969 355.602 39.1785 401.217 74.9808 437.019C110.783 472.822 156.398 497.203 206.057 507.081C255.716 516.959 307.189 511.889 353.967 492.513C400.745 473.137 440.727 440.325 468.856 398.226C496.986 356.127 512 306.632 512 256C512.098 222.479 505.592 189.267 492.855 158.261C480.117 127.254 461.397 99.0603 437.764 75.2884C414.13 51.5166 386.045 32.6326 355.114 19.7146C324.182 6.79656 291.009 0.0975384 257.488 0H256ZM260.339 264.678L233.685 354.557H376.252C377.196 354.524 378.138 354.677 379.023 355.008C379.908 355.339 380.719 355.841 381.41 356.486C382.101 357.131 382.658 357.906 383.049 358.766C383.44 359.626 383.658 360.555 383.69 361.499V363.855L371.293 406.625C370.746 408.647 369.528 410.424 367.839 411.663C366.149 412.902 364.089 413.53 361.995 413.443H143.806L180.378 288.852L139.467 301.249L148.765 272.736L189.676 260.339L241.124 85.5399C241.69 83.5287 242.913 81.7648 244.598 80.5291C246.283 79.2935 248.333 78.6572 250.421 78.7215H305.588C306.533 78.6884 307.475 78.8418 308.36 79.1728C309.245 79.5039 310.056 80.0062 310.747 80.6509C311.437 81.2957 311.994 82.0703 312.386 82.9305C312.777 83.7906 312.995 84.7195 313.027 85.6639V88.0194L269.637 235.545L310.547 223.148L301.869 252.901L260.339 264.678Z" fill="#345D9D"/>
</svg>
