<svg width="512" height="512" viewBox="0 0 512 512" fill="none" xmlns="http://www.w3.org/2000/svg">
<path d="M256 512C397.385 512 512 397.385 512 256C512 114.615 397.385 0 256 0C114.615 0 0 114.615 0 256C0 397.385 114.615 512 256 512Z" fill="#A5A5A5"/>
<path d="M156.776 124.287C153.626 128.256 150.533 132.17 149.914 132.952C149.295 133.735 142.433 142.4 134.67 152.24C126.907 162.079 119.876 170.968 119.032 172.03C118.189 173.092 112.114 180.752 105.476 189.081C98.8948 197.411 92.7635 205.126 91.9197 206.188C91.076 207.251 86.0134 213.68 80.6697 220.444C75.3821 227.209 70.7133 233.135 70.3758 233.582C69.9821 234.029 67.9571 236.601 65.8758 239.34L62.0508 244.204L63.5133 244.763C64.8633 245.266 69.1383 245.658 79.5446 246.217C82.1884 246.384 117.289 246.552 157.62 246.664L230.914 246.887L236.371 240.123C239.352 236.377 242.164 232.967 242.502 232.464C243.852 230.899 266.577 202.499 267.983 200.654C268.771 199.647 269.952 198.194 270.683 197.355C271.358 196.517 273.046 194.448 274.34 192.771C275.633 191.094 276.815 189.585 276.983 189.417C277.152 189.249 279.683 186.118 282.608 182.429C285.534 178.739 288.234 175.329 288.571 174.881C291.609 171.136 298.64 162.191 300.89 159.228C302.409 157.215 303.815 155.482 303.984 155.315C304.377 154.979 320.184 134.909 326.878 126.132C330.421 121.548 331.321 120.038 330.759 119.591C330.084 119.032 327.609 118.641 321.984 118.138C316.19 117.634 269.165 117.187 217.639 117.075L162.514 117.019L156.776 124.287ZM278.783 143.183C279.627 143.239 280.415 143.463 280.583 143.63C280.865 143.91 273.158 153.917 258.983 171.807C252.233 180.248 253.752 178.403 243.571 191.094C226.752 212.003 224.389 214.966 222.702 217.146C221.802 218.32 220.283 220.109 219.327 221.059L217.639 222.736L174.889 222.625C126.851 222.513 117.795 222.233 114.814 220.612C113.914 220.165 113.97 219.829 115.939 217.202C117.12 215.58 118.47 213.792 119.032 213.177C119.539 212.562 121.732 209.766 123.87 207.027C127.132 202.89 140.239 186.342 142.039 184.162C142.32 183.826 145.639 179.745 149.408 175.161C155.089 168.229 159.645 162.526 164.089 156.992C170.22 149.277 173.033 145.867 174.158 144.804C175.508 143.574 176.014 143.574 189.852 143.239C197.727 143.015 204.195 142.848 204.252 142.792C204.42 142.624 277.265 143.015 278.783 143.183Z" fill="white"/>
<path d="M350.11 143.966C344.767 149.668 340.66 155.259 339.648 158.054C338.804 160.57 339.254 161.464 343.979 167.11C345.835 169.403 348.367 172.366 349.548 173.763C357.761 183.602 369.967 197.97 384.142 214.574C388.473 219.661 392.523 224.413 393.142 225.14C393.761 225.867 395.28 227.656 396.517 229.053C397.755 230.507 399.892 233.023 401.298 234.644C402.705 236.321 404.111 237.942 404.448 238.278C405.63 239.508 406.361 241.353 405.855 241.688C405.067 242.135 368.167 242.583 315.967 242.75C282.891 242.862 270.066 243.086 269.504 243.533C269.11 243.868 267.254 246.216 265.454 248.732C261.01 254.882 261.01 255.385 266.185 262.597L270.291 268.243H309.216C365.354 268.243 391.567 268.69 399.723 269.697C401.861 269.976 402.311 270.2 402.03 270.927C401.242 272.827 371.542 311.067 363.217 320.794C362.542 321.577 360.461 324.092 358.548 326.385C356.636 328.677 354.723 331.081 354.217 331.696C353.711 332.255 349.942 337.007 345.779 342.15L338.298 351.542L344.823 360.04C352.473 370.047 354.442 372.227 355.848 372.227C357.479 372.227 355.173 374.966 384.704 338.404C393.705 327.335 401.298 317.887 401.692 317.44C402.03 316.993 403.211 315.595 404.223 314.309C406.867 311.122 408.948 308.495 414.292 301.786C416.88 298.544 419.186 295.637 419.467 295.357C419.692 295.022 423.63 290.102 428.186 284.4C432.742 278.697 439.605 270.032 443.486 265.168C447.367 260.305 450.686 256.056 450.911 255.664C451.249 255.161 448.211 250.912 444.105 246.161C443.599 245.49 440.111 241.241 436.455 236.657C432.742 232.016 429.592 228.159 429.423 227.991C429.255 227.824 427.117 225.196 424.642 222.121C422.167 219.046 420.03 216.419 419.861 216.251C419.692 216.083 415.53 210.94 410.58 204.791C405.63 198.641 401.467 193.498 401.298 193.33C401.13 193.162 397.867 189.137 393.986 184.385C384.198 172.254 366.367 150.786 361.979 145.811C357.029 140.22 355.904 139.102 355.229 139.102C354.948 139.102 352.642 141.282 350.11 143.966Z" fill="white"/>
<path d="M99.6261 264.665C99.5699 264.721 91.0761 264.889 80.726 265.057C62.1071 265.336 60.0821 265.56 61.3759 267.237C61.6571 267.628 64.8071 271.877 68.3509 276.629C71.8384 281.381 74.876 285.406 75.0447 285.574C75.2135 285.742 77.126 288.09 79.2635 290.885C81.401 293.624 84.9448 298.041 87.1385 300.668C89.3886 303.296 100.639 317.384 112.17 331.975C138.383 365.071 151.039 380.781 157.902 388.775L163.302 394.98L190.977 394.869C214.827 394.701 309.89 394.03 326.934 393.806C330.084 393.806 332.671 393.695 332.671 393.583C332.671 393.247 309.102 363.282 300.102 352.101C297.29 348.635 286.884 335.553 285.534 333.82C284.859 332.926 283.677 331.416 282.946 330.522C281.315 328.509 270.008 314.533 267.702 311.626C266.802 310.452 265.452 308.83 264.833 308.048C264.158 307.209 260.39 302.513 256.508 297.593C252.571 292.674 249.083 288.257 248.69 287.81C248.296 287.363 246.608 285.183 244.921 283.058C243.233 280.878 241.602 278.865 241.265 278.474C240.983 278.138 240.083 277.02 239.296 276.014C238.508 275.008 236.202 272.045 234.121 269.417L230.352 264.609H165.045C129.101 264.609 99.6824 264.665 99.6261 264.665ZM217.864 290.941C221.689 295.078 267.477 352.94 274.902 363.003C279.571 369.32 279.796 369.711 278.559 370.047C276.534 370.494 260.896 370.718 223.546 370.718C184.283 370.773 177.083 370.438 173.539 368.593C172.639 368.146 169.264 364.344 166.058 360.151C159.139 351.095 157.958 349.585 155.651 346.734C145.414 334.156 113.351 293.848 113.126 293.233C112.507 291.668 115.545 291.108 125.951 290.773C131.52 290.605 136.133 290.438 136.189 290.382C136.695 289.99 217.471 290.494 217.864 290.941Z" fill="white"/>
</svg>
