<svg width="512" height="512" viewBox="0 0 512 512" fill="none" xmlns="http://www.w3.org/2000/svg">
<path fill-rule="evenodd" clip-rule="evenodd" d="M256 0C397.395 0 512 114.605 512 256C512 397.395 397.395 512 256 512C114.605 512 0 397.395 0 256C0 114.605 114.605 0 256 0Z" fill="#A5A5A5"/>
<path d="M140.697 256L140.882 323.692L198.4 357.538V397.169L107.221 343.692V236.205L140.697 256ZM140.697 188.308V227.754L107.2 207.938V168.492L140.697 148.677L174.359 168.492L140.697 188.308ZM222.421 168.492L255.918 148.677L289.58 168.492L255.918 188.308L222.421 168.492Z" fill="white"/>
<path d="M164.903 309.662V270.031L198.4 289.846V329.292L164.903 309.662ZM222.421 371.733L255.918 391.549L289.579 371.733V411.179L255.918 430.995L222.421 411.179V371.733ZM337.62 168.492L371.118 148.677L404.779 168.492V207.938L371.118 227.754V188.308L337.62 168.492ZM371.118 323.692L371.303 256L404.8 236.185V343.672L313.62 397.149V357.518L371.118 323.692Z" fill="white"/>
<path d="M347.097 309.662L313.6 329.292V289.846L347.097 270.031V309.662Z" fill="white"/>
<path d="M347.097 202.338L347.282 241.969L289.6 275.815V343.672L256.103 363.303L222.605 343.672V275.815L164.923 241.969V202.338L198.564 182.523L255.897 216.533L313.579 182.523L347.241 202.338H347.097ZM164.903 134.667L255.918 81.0051L347.097 134.667L313.6 154.482L255.918 120.472L198.4 154.482L164.903 134.667Z" fill="white"/>
</svg>
