<svg width="512" height="512" viewBox="0 0 512 512" fill="none" xmlns="http://www.w3.org/2000/svg">
<path d="M504.284 317.933C470.092 455.077 331.188 538.541 194.028 504.341C56.9237 470.149 -26.5403 331.237 7.66769 194.101C41.8437 56.9408 180.748 -26.5312 317.868 7.66077C455.02 41.8528 538.476 180.781 504.284 317.933Z" fill="#A5A5A5"/>
<path d="M368.844 219.533C373.94 185.469 348.004 167.157 312.54 154.941L324.044 108.797L295.956 101.797L284.756 146.725C277.372 144.885 269.788 143.149 262.252 141.429L273.532 96.2051L245.46 89.2051L233.948 135.333C227.836 133.941 221.836 132.565 216.012 131.117L216.044 130.973L177.308 121.301L169.836 151.301C169.836 151.301 190.676 156.077 190.236 156.373C201.612 159.213 203.668 166.741 203.324 172.709L190.22 225.277C191.004 225.477 192.02 225.765 193.14 226.213C192.204 225.981 191.204 225.725 190.172 225.477L171.804 299.117C170.412 302.573 166.884 307.757 158.932 305.789C159.212 306.197 138.516 300.693 138.516 300.693L124.572 332.845L161.124 341.957C167.924 343.661 174.588 345.445 181.148 347.125L169.524 393.797L197.58 400.797L209.092 354.621C216.756 356.701 224.196 358.621 231.476 360.429L220.004 406.389L248.092 413.389L259.716 366.805C307.612 375.869 343.628 372.213 358.788 328.893C371.004 294.013 358.18 273.893 332.98 260.773C351.332 256.541 365.156 244.469 368.844 219.533ZM304.668 309.525C295.988 344.405 237.26 325.549 218.22 320.821L233.644 258.989C252.684 263.741 313.74 273.149 304.668 309.525ZM313.356 219.029C305.436 250.757 256.556 234.637 240.7 230.685L254.684 174.605C270.54 178.557 321.604 185.933 313.356 219.029Z" fill="white"/>
</svg>
