<svg width="512" height="512" viewBox="0 0 512 512" fill="none" xmlns="http://www.w3.org/2000/svg">
<path d="M256 512C397.385 512 512 397.385 512 256C512 114.615 397.385 0 256 0C114.615 0 0 114.615 0 256C0 397.385 114.615 512 256 512Z" fill="#A5A5A5"/>
<path fill-rule="evenodd" clip-rule="evenodd" d="M404.592 189.552C377.27 118.995 309.728 105.924 309.728 105.924H117.028L117.772 177.792H156.148V338.273H117.025V410.012H304.394C349.551 410.012 385.748 364.633 385.748 364.633C443.715 282.362 404.589 189.552 404.589 189.552H404.592ZM305.399 316.283C305.399 316.283 290.703 337.487 274.712 337.487H242.724L241.966 177.967H283.017C283.017 177.967 302.036 181.944 315.324 219.583C315.324 219.583 332.94 273.471 305.399 316.283Z" fill="white" fill-opacity="0.8"/>
</svg>
