<svg width="512" height="512" viewBox="0 0 512 512" fill="none" xmlns="http://www.w3.org/2000/svg">
<path d="M256 512C397.386 512 512 397.386 512 256C512 114.615 397.386 0 256 0C114.615 0 0 114.615 0 256C0 397.386 114.615 512 256 512Z" fill="#A5A5A5"/>
<path d="M256 96L227.216 112.88L148.8 159.12L120 176V336L148.784 352.88L227.936 399.118L256.72 416.002L285.504 399.118L363.216 352.88L391.999 336V176L363.216 159.12L284.784 112.88L256 96ZM177.568 302.24V209.76L256 163.52L334.432 209.76V302.24L256 348.48L177.568 302.24Z" fill="white"/>
</svg>
