<svg width="512" height="512" viewBox="0 0 512 512" fill="none" xmlns="http://www.w3.org/2000/svg">
<path d="M256 512C397.385 512 512 397.385 512 256C512 114.615 397.385 0 256 0C114.615 0 0 114.615 0 256C0 397.385 114.615 512 256 512Z" fill="#FF060A"/>
<path d="M424.206 180.207C409.685 170.051 394.157 159.224 378.965 148.48C378.629 148.228 378.294 147.977 377.874 147.725C376.195 146.466 374.265 145.123 371.915 144.367L371.747 144.283C331.122 134.463 289.827 124.391 249.874 114.655C213.614 105.841 177.438 97.0283 141.179 88.2152C140.256 87.9634 139.332 87.7116 138.325 87.4598C135.052 86.5365 131.275 85.5293 127.246 86.0329C126.071 86.2008 125.063 86.6205 124.14 87.208L123.133 88.0473C121.538 89.5582 120.699 91.4887 120.279 92.5798L120.027 93.2513V97.1123L120.195 97.6998C143.109 161.91 166.611 227.043 189.273 290.077C206.732 338.592 224.861 388.868 242.572 438.222C243.663 441.579 246.768 443.761 250.629 444.097H251.469C255.078 444.097 258.267 442.335 259.862 439.481L326.338 342.537C342.537 318.951 358.737 295.281 374.936 271.696C381.567 262.043 388.198 252.307 394.829 242.655C405.74 226.707 416.987 210.256 428.151 194.224L428.738 193.385V192.378C428.99 189.44 429.074 183.397 424.206 180.207ZM346.315 215.544C330.703 223.685 314.755 232.079 298.724 240.388C308.04 230.4 317.441 220.328 326.758 210.34C338.425 197.75 350.595 184.74 362.514 171.982L362.766 171.73C363.773 170.387 365.032 169.128 366.375 167.785C367.298 166.862 368.305 165.938 369.229 164.847C375.44 169.128 381.735 173.493 387.778 177.773C392.143 180.879 396.591 183.984 401.124 187.09C382.658 196.491 364.193 206.143 346.315 215.544ZM306.194 211.515C294.191 224.525 281.769 237.87 269.431 251.048C245.509 222.007 221.084 192.546 197.415 164.092C186.671 151.166 175.844 138.156 165.1 125.23L165.016 125.146C162.582 122.377 160.232 119.355 157.882 116.501C156.371 114.571 154.776 112.724 153.181 110.794C162.918 113.312 172.738 115.662 182.391 117.928C190.868 119.942 199.681 122.041 208.326 124.223C257.008 136.058 305.774 147.893 354.456 159.727C338.257 177.018 321.974 194.56 306.194 211.515ZM263.975 375.103C264.898 366.29 265.905 357.225 266.745 348.328C267.5 341.194 268.256 333.891 269.011 326.925C270.186 315.761 271.445 304.178 272.452 292.847L272.704 290.833C273.543 283.615 274.383 276.144 274.886 268.674C275.81 268.171 276.817 267.667 277.908 267.247C279.167 266.66 280.426 266.156 281.685 265.401C301.074 255.245 320.463 245.089 339.936 235.017C359.324 224.944 379.217 214.537 398.941 204.213C380.979 230.232 362.934 256.504 345.475 282.104C330.451 304.011 315.007 326.589 299.647 348.832C293.604 357.729 287.309 366.794 281.349 375.523C274.635 385.259 267.752 395.247 261.037 405.236C261.877 395.163 262.884 385.007 263.975 375.103ZM146.97 130.602C145.879 127.58 144.704 124.475 143.697 121.537C166.359 148.9 189.189 176.43 211.432 203.121C222.931 216.971 234.43 230.736 245.929 244.669C248.195 247.271 250.461 250.041 252.644 252.727C255.497 256.168 258.351 259.777 261.457 263.218C260.45 271.864 259.61 280.593 258.687 288.986C258.099 294.862 257.512 300.737 256.84 306.697V306.78C256.589 310.557 256.085 314.335 255.665 318.028C255.078 323.148 253.735 334.731 253.735 334.731L253.651 335.318C252.14 352.273 250.294 369.396 248.531 386.015C247.776 392.897 247.104 399.948 246.349 406.998C245.929 405.739 245.425 404.48 245.006 403.305C243.747 399.948 242.488 396.422 241.313 392.981L232.332 368.053C203.878 288.902 175.424 209.836 146.97 130.602Z" fill="white"/>
</svg>
