<svg width="512" height="512" viewBox="0 0 512 512" fill="none" xmlns="http://www.w3.org/2000/svg">
<path d="M414 107H108V405H414V107Z" fill="white"/>
<path d="M389.7 248.7C389.6 261.2 345.3 271.6 286 274.2C284.3 274.3 275.6 274.8 256.3 274.8C240.8 274.8 230 274.3 226.1 274.1C196.4 272.8 170.4 269.5 151.9 265.1C133.4 260.7 122.3 255 122.3 248.7C122.3 236.3 166.7 226 226.1 223.3V263.7C230 264 241.1 264.7 256.5 264.7C275 264.7 284.2 263.9 286 263.7V223.3C345.5 226 389.7 236.3 389.7 248.7ZM512 256C512 397.4 397.4 512 256 512C114.6 512 0 397.4 0 256C0 114.6 114.6 0 256 0C397.4 0 512 114.6 512 256ZM403.7 251.7C403.7 235.7 353.3 222.4 286 219.3V183.2H368.7V128H143.4V183.2H226.1V219.3C158.9 222.4 108.3 235.7 108.3 251.6C108.3 267.6 158.9 280.9 226.1 284V400H286V284.1C353.3 281 403.7 267.7 403.7 251.7Z" fill="#A5A5A5"/>
</svg>
