<svg width="512" height="512" viewBox="0 0 512 512" fill="none" xmlns="http://www.w3.org/2000/svg">
<path d="M256 512C397.868 512 512 397.868 512 256C512 114.132 397.868 0 256 0C114.132 0 0 114.132 0 256C0 397.868 114.132 512 256 512Z" fill="#A5A5A5"/>
<path d="M326.399 296.533C326.399 259.2 303.999 246.4 259.199 241.068C227.199 236.8 220.799 228.268 220.799 213.333C220.799 198.398 231.467 188.8 252.799 188.8C271.999 188.8 282.667 195.2 287.999 211.2C289.067 214.4 292.267 216.533 295.467 216.533H312.532C316.799 216.533 319.999 213.333 319.999 209.068V208C315.732 184.533 296.532 166.4 271.999 164.268V138.668C271.999 134.4 268.799 131.2 263.467 130.133H247.467C243.199 130.133 239.999 133.333 238.932 138.668V163.2C206.932 167.468 186.667 188.8 186.667 215.468C186.667 250.668 207.999 264.533 252.799 269.868C282.667 275.2 292.267 281.6 292.267 298.668C292.267 315.735 277.332 327.468 257.067 327.468C229.332 327.468 219.732 315.733 216.532 299.733C215.467 295.468 212.267 293.333 209.067 293.333H190.932C186.667 293.333 183.467 296.533 183.467 300.8V301.868C187.732 328.533 204.799 347.733 239.999 353.068V378.668C239.999 382.933 243.199 386.133 248.532 387.2H264.532C268.799 387.2 271.999 384 273.067 378.668V353.068C305.067 347.733 326.399 325.333 326.399 296.533Z" fill="white"/>
<path d="M201.599 408.533C118.399 378.668 75.7318 285.868 106.667 203.733C122.667 158.933 157.867 124.8 201.599 108.8C205.867 106.668 207.999 103.468 207.999 98.1329V83.2004C207.999 78.9329 205.867 75.7329 201.599 74.668C200.532 74.668 198.399 74.668 197.332 75.7329C95.9993 107.733 40.5318 215.468 72.5318 316.8C91.7318 376.533 137.599 422.4 197.332 441.6C201.599 443.733 205.867 441.6 206.932 437.333C207.999 436.268 207.999 435.2 207.999 433.068V418.133C207.999 414.933 204.799 410.668 201.599 408.533ZM314.667 75.7329C310.399 73.6004 306.132 75.7329 305.067 80.0004C303.999 81.068 303.999 82.1329 303.999 84.268V99.2004C303.999 103.468 307.199 107.733 310.399 109.868C393.599 139.733 436.267 232.533 405.332 314.668C389.332 359.468 354.132 393.6 310.399 409.6C306.132 411.733 303.999 414.933 303.999 420.268V435.2C303.999 439.468 306.132 442.668 310.399 443.733C311.467 443.733 313.599 443.733 314.667 442.668C415.999 410.668 471.467 302.933 439.467 201.6C420.267 140.8 373.332 94.9329 314.667 75.7329Z" fill="white"/>
</svg>
